<?xml version="1.0" encoding="UTF-8"?>
<!-- Generator: Adobe Illustrator 23.0.4, SVG Export Plug-In . SVG Version: 6.00 Build 0)  -->
<svg version="1.1" id="Layer_1" xmlns="http://www.w3.org/2000/svg" xmlns:xlink="http://www.w3.org/1999/xlink" x="0px" y="0px" width="300px" height="300px" viewBox="0 0 300 300" enable-background="new 0 0 300 300" xml:space="preserve">
<g display="none">
	<g display="inline">
		<path opacity="0.45" fill="#F2F2F2" enable-background="new    " d="M295.1,161.7c-3.8-13.5-13.3-12.3-18.1-28.2    c-5.5-18,5.3-25.3,1.6-39.3c-3.6-13.6-15.9-14.8-65.1-39.8c-36.2-18.4-47.6-26.9-63.1-22.2c-5.7,1.7-15.8,6.3-24.8,11.6    c-13.7,8-16.9,12.9-24.2,13.4c-6.2,0.5-15.2-2.2-27-16.8l0,0C59.3,22.1,36.8,11.5,13,11.5l0,0c-6,0-10.9,4.9-10.9,10.9v129.5    c2,7.5,2.7,14.2,2.8,19.9c0.1,7.9-1.1,10.2-0.4,17.1c1,10.3,4.9,17.7,5.7,19.1c3.5,6.5,8.6,11,18.6,19.6c8.3,7.2,15,12.1,16,12.9    c23,17,34.5,25.5,41.9,26.9c18.5,3.5,36.3-5,41.4-7.5c7.6-3.6,6.5-4.9,12.3-7c15.5-5.8,23.2,1.4,46,2.6c22,1.1,38.6-4.4,46.4-7.1    c7.4-2.5,12.7-5.2,17.1-8c4.7-3,10.8-7.5,17.6-15.4C279.1,211.7,301.8,185.4,295.1,161.7z"/>
		<path fill="#F2F2F2" d="M295.1,161.7c-6.4-14.6-18.9-11.6-27.3-28.2c-8.1-16,1.1-24-3.4-45.2c-0.5-2.5-8.2-36.5-38.3-50.6    c-14.3-6.7-35.7-9.9-52.1-2c-5.2,2.5-12.6,6.9-26.7,13.3c-3.9,1.8-8.6,3.5-14.4,5.2c-19.4,5.6-29,3.6-31.6,3    c-13.9-3.2-22.9-12.1-27-16.8l0,0c-1-2.8-7.9-20.9-26.8-27.7C44,11.5,30.3,7,18.9,13.2C4.8,20.9-2,42.6,5.4,65.2    c7.1,18.9,7.8,34.1,7,44.7c-1.8,25.2-13.2,39.5-7.5,61.8c2.4,9.5,6.8,16.7,10,21.2l0,0c-0.6,4.7,21.3,23.6,21.1,34.2    c-0.1,5-3.5,6.3-3.7,9.9c-0.8,17.5,80.2,38.7,95.7,22.9c1.3-1.4,7.4-7,16.7-13.1c0,0,3.3-1.7,6.6-3c26.7-10.3,56.2-1.3,60.3,0.1    c8,2.6,12.8,5.3,21.1,4.5c2.9-0.2,13.3-1.1,17.1-8c3.2-5.7-0.7-10.7,2.6-14.3c3.4-3.6,9.5-1.1,15.1-1.2    C282,224.9,306.1,186.7,295.1,161.7z"/>
		<path fill="#EFC0A0" d="M97.4,225.2c0.2,0.1,2.6,2.8,2.6,2.8l4-3c0,0-3.5-2.5-5.2-3S97.4,225.2,97.4,225.2z"/>
		<g>
			<path fill="#894820" d="M98.8,227.1c0,0,0.1,6,0.1,7.3s1.4,4.2,2.6,3.8s4.4-10.1,4.5-10.8c0-0.3-0.9-1.6-1.9-2.9     C102.1,226.4,98.8,227.1,98.8,227.1z"/>
			<g>
				<path fill="#894820" d="M105.6,226.4c0.3,0.4,0.4,0.7,0.4,0.8c-0.1,0.8-3.2,10.4-4.5,10.8c-0.5,0.2-1.1-0.2-1.5-0.8      c0.5,0.8,1.2,1.5,1.8,1.3c1.3-0.4,4.4-10.1,4.5-10.8C106.3,227.5,106,227,105.6,226.4z"/>
			</g>
		</g>
		<path fill="#EFC0A0" d="M85,46.1c0,0,17.1-2,35.7-2.2c19-0.2,45-3.5,46.6-3.4c1.6,0.1,13,6.6,13.1,9.7c0,0-13.9-0.3-15.4-0.5    c-1.6-0.1-32.1,1.3-35.1,1.4c-3,0.1-31.7,7-31.7,7L85,46.1z"/>
		<path fill="#EFC0A0" d="M36.6,70l0.6,22.1c0,0,0.2,6.4,1.7,6.4s6.7,1.1,6.9-4.6c0.1-3.2,4.5-12.5,4.7-15.5    c0.4-8.2-1.8-14.4-1.8-14.4L36.6,70z"/>
		<path fill="#323857" d="M79.9,36c0.2,0.8-0.1,3.7,2.9,1.8s8.7-6.2,7.5-18.7c-0.5-4.9-1.1-6.4-1.9-6.6c-1.1-0.2-2.1,2.2-3.5,2    c-1.1-0.2-1.6-2.1-2.2-3.8c-1.7-5-2.7-7.6-4.1-8.1C75.2,1.2,65.5,11,67.4,18.4c0.4,1.7,1.3,2.8,2.6,4.4c4,5.1,8.4,5.1,9,8.7    C79.3,33.4,79.6,35.1,79.9,36z"/>
		<rect x="60.2" y="46.1" fill="#EFC0A0" width="26.3" height="18"/>
		<path fill="#EFC0A0" d="M86,228.7v4.1l2.2,2c0,0,2.1,4.5-1,5.2c0,0-6.9,2.7-7.3-4.8s-1-8.5-1-8.5L86,228.7z"/>
		<path fill="#38364C" d="M49.7,122l-0.3,2.2c0.5,14.6,5.6,55.7,7,65.9c1.5,11.1,41.6,36.1,41.6,36.1l7.3-3.7L71.5,189l3.1-45.1    c0,0,2.8,84.7,5.1,88.1c0,0,5.3,2.9,6.2-0.1s14.8-104.5,11.6-118.2C85.9,110.6,49.7,122,49.7,122z"/>
		<path fill="#FFF0C7" d="M10.1,196.2"/>
		<path fill="#00C18D" d="M85,46.1c-0.9,0-1.6,0.6-1.7,1.5c-0.8,4.8-5,8.5-10.1,8.5c-5.6,0-10.1-4.5-10.3-10l0,0    c-12.3-0.2-16.4,3.8-22.8,6.8c-5,7.2-4.2,26.5-3.6,26.5l13.8-0.9l0.6-8c0,0,0,21.3,0,26.3s-0.4,19.6-1.3,25.3    c-0.2,1.2,1.9,6,11.3,6c6.3,0,19.7-3.6,28.2-4.5c4-0.4,8.3,0.4,8.3,0.4c1.1,0,2-1,1.9-2.1c-0.8-6.7-3.1-27.8-3-35.8    c0.1-6.5,3.2-25.9,3.2-25.9s11.4-2.7,11.4-3.7l1-12.2C112,43,85,46.1,85,46.1z"/>
		<g>
			<path fill="#E2AF8D" d="M73.3,53.7c4.2,0,6.3-3,8.8-7.6l0,0c-2.4,3.1-5.4,5-8.8,5s-6.4-1.9-8.8-5l0,0     C67,50.7,69.1,53.7,73.3,53.7z"/>
		</g>
		<ellipse fill="#EFC0A0" cx="73.3" cy="29.3" rx="13.8" ry="21.7"/>
		<path fill="#323857" d="M62.1,36c-0.2,0.8,0.1,3.7-2.9,1.8c-0.7-0.4-2.6-1.5-3.9-3.3c-3.1-4.4-6.5-18.1-2.4-20.2    c1.9-1,4,1.4,5.8,0.2c1.9-1.3,0.5-4.4,1.6-7.4c1.8-4.7,8.7-6.6,12.9-6.9c8.9-0.5,19.1,5.9,18.9,12.2c-0.1,3.1-2.8,7.8-6.8,9    c-0.2,0.1-0.3,0.1-0.5,0.1c-6.2,1.6-7.6-0.9-12.8,1.2c-4.1,1.7-8.4,5.5-9,8.7C62.7,33.4,62.4,35.1,62.1,36z"/>
		<path fill="#EFC0A0" d="M64,80.1c0,0,3.7-1.4,4.8,0s2,6.9,1.6,7.6C69.6,89,66,89,65.7,89.2s-3.1,0.6-3.3-1.7    c-0.2-2.3-1.7-9.1-1.7-9.5s-0.2-1.8,0.7-1.5s1.7,1.1,1.8,1.8C63.2,79.1,64,80.1,64,80.1z"/>
		<circle fill="#FFC162" cx="155.6" cy="141.7" r="97.9"/>
		<circle fill="#FFFFFF" cx="155.6" cy="141.7" r="87.3"/>
		<polygon fill="#323857" points="153,141.7 155.6,143.7 216.3,101.7 214.4,99   "/>
		
			<rect x="131" y="102.4" transform="matrix(0.4783 -0.8782 0.8782 0.4783 -44.891 184.2406)" fill="#323857" width="3.2" height="55.1"/>
		<circle fill="#323857" cx="155.6" cy="141.7" r="6.4"/>
		<g>
			<path fill="#894820" d="M86,232l2.2,2c0,0,2.1,4.5-1,5.2c0,0-6.9,2.7-7.3-4.8c0-0.8-0.1-1.6-0.1-2.2c0,0,1.7,0.6,3.4,0.6     C85.7,232.7,86,232,86,232z"/>
			<g>
				<path fill="#894820" d="M79.9,235.2c0.4,7.5,7.3,4.8,7.3,4.8c1.5-0.3,1.8-1.6,1.6-2.8c-0.1,0.9-0.5,1.6-1.6,1.9      c0,0-6.9,2.7-7.3-4.8V235.2z"/>
			</g>
		</g>
		<path fill="#F4F4F4" d="M236.4,240.2h-52.6c-1.8,0-3.2-1.4-3.2-3.2v-52.6c0-1.8,1.4-3.2,3.2-3.2h52.6c1.8,0,3.2,1.4,3.2,3.2V237    C239.6,238.7,238.2,240.2,236.4,240.2z"/>
		<path fill="#DD5858" d="M142.3,217.5c0-2,1-3.7,2.5-4.8c1.1-0.8,1.5-2.2,1-3.4l0,0c-0.5-1.2-1.7-1.9-3-1.7    c-1.9,0.4-3.8-0.2-5.3-1.6c-1.4-1.4-2-3.4-1.6-5.3c0.2-1.3-0.5-2.5-1.7-3c0,0,0,0-0.1,0c-1.2-0.5-2.6-0.1-3.4,1    c-1.1,1.5-2.8,2.5-4.8,2.5s-3.7-1-4.8-2.5c-0.8-1.1-2.2-1.5-3.4-1c0,0,0,0-0.1,0c-1.2,0.5-1.9,1.7-1.7,3c0.4,1.9-0.2,3.8-1.6,5.3    c-1.4,1.4-3.4,2-5.3,1.6c-1.2-0.2-2.5,0.5-3,1.7l0,0c-0.5,1.2-0.1,2.6,1,3.4c1.5,1.1,2.5,2.8,2.5,4.8s-1,3.7-2.5,4.8    c-1.1,0.8-1.5,2.2-1,3.4l0,0c0.5,1.2,1.7,1.9,3,1.7c1.9-0.4,3.8,0.2,5.3,1.6c1.4,1.4,2,3.4,1.6,5.3c-0.2,1.3,0.5,2.5,1.7,3    c0,0,0,0,0.1,0c1.2,0.5,2.6,0.1,3.4-1c1.1-1.5,2.8-2.5,4.8-2.5s3.7,1,4.8,2.5c0.8,1.1,2.2,1.5,3.4,1l0,0c1.2-0.5,1.9-1.7,1.7-3    c-0.4-1.9,0.2-3.8,1.6-5.3c1.4-1.4,3.4-2,5.3-1.6c1.3,0.2,2.5-0.5,3-1.7c0,0,0,0,0-0.1c0.5-1.2,0.1-2.6-1-3.4    C143.3,221.2,142.3,219.4,142.3,217.5z M131,220.6c-2.4,3.7-7.7,3.7-10.1,0c-1.2-1.9-1.2-4.4,0-6.2c2.4-3.7,7.7-3.7,10.1,0    C132.2,216.2,132.2,218.7,131,220.6z"/>
		<path fill="#62D5E6" d="M239.6,191.2h-59v-6.8c0-1.8,1.4-3.2,3.2-3.2h52.6c1.8,0,3.2,1.4,3.2,3.2L239.6,191.2L239.6,191.2z"/>
		<g>
			<path fill="#E2E2E2" d="M192.9,206.3h-3.5c-0.7,0-1.3-0.6-1.3-1.3v-3.5c0-0.7,0.6-1.3,1.3-1.3h3.5c0.7,0,1.3,0.6,1.3,1.3v3.5     C194.1,205.7,193.6,206.3,192.9,206.3z"/>
			<path fill="#E2E2E2" d="M205.6,206.3H202c-0.7,0-1.3-0.6-1.3-1.3v-3.5c0-0.7,0.6-1.3,1.3-1.3h3.5c0.7,0,1.3,0.6,1.3,1.3v3.5     C206.8,205.7,206.3,206.3,205.6,206.3z"/>
			<path fill="#E2E2E2" d="M218.3,206.3h-3.5c-0.7,0-1.3-0.6-1.3-1.3v-3.5c0-0.7,0.6-1.3,1.3-1.3h3.5c0.7,0,1.3,0.6,1.3,1.3v3.5     C219.5,205.7,219,206.3,218.3,206.3z"/>
			<path fill="#E2E2E2" d="M231,206.3h-3.5c-0.7,0-1.3-0.6-1.3-1.3v-3.5c0-0.7,0.6-1.3,1.3-1.3h3.5c0.7,0,1.3,0.6,1.3,1.3v3.5     C232.2,205.7,231.7,206.3,231,206.3z"/>
			<path fill="#E2E2E2" d="M192.9,217.5h-3.5c-0.7,0-1.3-0.6-1.3-1.3v-3.5c0-0.7,0.6-1.3,1.3-1.3h3.5c0.7,0,1.3,0.6,1.3,1.3v3.5     C194.1,216.9,193.6,217.5,192.9,217.5z"/>
			<path fill="#E2E2E2" d="M205.6,217.5H202c-0.7,0-1.3-0.6-1.3-1.3v-3.5c0-0.7,0.6-1.3,1.3-1.3h3.5c0.7,0,1.3,0.6,1.3,1.3v3.5     C206.8,216.9,206.3,217.5,205.6,217.5z"/>
			<path fill="#E2E2E2" d="M218.3,217.5h-3.5c-0.7,0-1.3-0.6-1.3-1.3v-3.5c0-0.7,0.6-1.3,1.3-1.3h3.5c0.7,0,1.3,0.6,1.3,1.3v3.5     C219.5,216.9,219,217.5,218.3,217.5z"/>
			<path fill="#E2E2E2" d="M231,217.5h-3.5c-0.7,0-1.3-0.6-1.3-1.3v-3.5c0-0.7,0.6-1.3,1.3-1.3h3.5c0.7,0,1.3,0.6,1.3,1.3v3.5     C232.2,216.9,231.7,217.5,231,217.5z"/>
			<path fill="#E2E2E2" d="M192.9,228.7h-3.5c-0.7,0-1.3-0.6-1.3-1.3v-3.5c0-0.7,0.6-1.3,1.3-1.3h3.5c0.7,0,1.3,0.6,1.3,1.3v3.5     C194.1,228.2,193.6,228.7,192.9,228.7z"/>
			<path fill="#E2E2E2" d="M205.6,228.7H202c-0.7,0-1.3-0.6-1.3-1.3v-3.5c0-0.7,0.6-1.3,1.3-1.3h3.5c0.7,0,1.3,0.6,1.3,1.3v3.5     C206.8,228.2,206.3,228.7,205.6,228.7z"/>
			<path fill="#E2E2E2" d="M218.3,228.7h-3.5c-0.7,0-1.3-0.6-1.3-1.3v-3.5c0-0.7,0.6-1.3,1.3-1.3h3.5c0.7,0,1.3,0.6,1.3,1.3v3.5     C219.5,228.2,219,228.7,218.3,228.7z"/>
			<path fill="#E2E2E2" d="M231,228.7h-3.5c-0.7,0-1.3-0.6-1.3-1.3v-3.5c0-0.7,0.6-1.3,1.3-1.3h3.5c0.7,0,1.3,0.6,1.3,1.3v3.5     C232.2,228.2,231.7,228.7,231,228.7z"/>
		</g>
		<path fill="#EFC0A0" d="M37.8,92c0,0,9.8-4.3,13.2-3.9s11.8-4.2,11.8-4.2l1.5,5.1c0,0-17,11.1-24.8,9.4C36.9,97.8,37.8,92,37.8,92    z"/>
	</g>
</g>
<g display="none">
	<g display="inline">
		<path opacity="0.45" fill="#F2F2F2" enable-background="new    " d="M292.3,176.2c-1.8-2.2-7.2-9-14-19.4    c-1.5-2.2-2.8-4.9-3.9-8.5c-4.4-14.3-0.2-26.2,1.5-38.9c0,0,2.4-17.4-3.6-38.1c-7.2-24.7-32-54.3-58.5-54.4    c-13.8,0-30.8,10.4-64.7,31.2c-1.7,1.1-7.5,4.3-15.7,8.1c-2.4,1.1-5.3,2.3-8.8,3.4c-4.2,1.3-15.7,5-23.9,3.6    c-9.3-1.6-12.9-9.4-21.2-18.6c-13.7-15.2-40.2-34.8-57.8-27c-11.2,5-16.8,15.5-19,20.8v128c2,7.4,2.7,14,2.7,19.7    C5.5,194,4.3,196.2,5,203c1,10.2,4.9,17.5,5.6,18.9c3.5,6.4,8.5,10.8,18.4,19.4c8.2,7.1,14.8,12,15.8,12.8    c21.3,15.8,32,23.7,41.4,26.6c6,1.9,23.4,7.2,37.6-1c6.7-3.9,5.2-6.5,12.1-11.7c16.2-12.1,39-9.2,49.7-7.8    c10.5,1.3,14.5,3.5,26.3,3.5c8,0,8.2-1.9,18.9-1.7c7,0.1,25.5-1.4,30.8-2.4C287.3,254.3,307,193.5,292.3,176.2z"/>
		<path fill="#F2F2F2" d="M292.3,166.5c-3.1-8.9-6.4-7.6-10.9-16.9c-13.4-27.3,11.1-47.2,1.8-69.8c-8.4-20.2-37.2-26.7-74.6-35.2    c-18.8-4.3-28.7-3.8-36-2.7c-19.4,2.9-33.4,12.4-40.7,18.3c-2,1.2-15.4,8.5-31.2,3c-13.8-4.8-19.9-16.1-21.2-18.6    C76.1,40.2,68.2,31.3,55,26.5c-6-2.1-19.3-7-31.4-0.8c-2,1-9.3,5.1-15,17.7c-8.9,19.5-3.3,36.3-1,59.6c1.1,11.5-1.3,40.5-2.2,57.7    C5.2,164,4.8,171.4,8,180.1c3.5,9.5,9.6,15.9,13.9,19.7c8.2,8.4,16.8,20,14.3,31.4c-1.1,5.3-3.5,6.2-3.7,9.7    c-0.7,17.3,79.3,38.3,94.7,22.6c1.3-1.4,7.3-7,16.5-12.9c0,0,3.2-1.7,6.5-3c26.4-10.2,55.6-1.3,59.7,0.1    c7.9,2.5,12.7,5.2,20.8,4.5c2.8-0.2,13.1-1.1,16.9-7.9c3.1-5.6-0.7-10.6,2.5-14.1c3.3-3.6,9.4-1.1,14.9-1.1    C282.8,229.1,301,191.8,292.3,166.5z"/>
		<path fill="#24374E" d="M176.9,177.7h-65.4c-1.8,0-3.2-1.4-3.2-3.2V88.7c0-1.8,1.4-3.2,3.2-3.2h65.4c1.8,0,3.2,1.4,3.2,3.2v85.8    C180.1,176.2,178.7,177.7,176.9,177.7z"/>
		<path fill="#315270" d="M176.9,190.2h-65.4c-1.8,0-3.2-1.4-3.2-3.2V90.9c0-1.8,1.4-3.2,3.2-3.2h65.4c1.8,0,3.2,1.4,3.2,3.2V187    C180.1,188.7,178.7,190.2,176.9,190.2z"/>
		<path opacity="0.13" fill="#232323" enable-background="new    " d="M151.8,95.2c-0.4,0.4-4.1,1.7-5.4,2.2l-7.7,2.4    c-0.9,0.3-1.9,0.2-2.8-0.2c-6.9-3.2-35.6-16.2-35.6-16.2s10.6,19.5,10.2,20.7c-0.3,1,18.9,4.4,24.8,5.5c1,0.2,2.1-0.1,3-0.7    l9.1-6.8c0.2,0,3.9,0.3,3.7-1.6s-0.6-2.8-0.6-2.8s1.9-0.8,2.3-2C153.2,94.4,151.8,95.2,151.8,95.2z"/>
		<path fill="#FFC97E" d="M105.3,73.2c0,0,25.7,18.2,31.9,22.7c0.8,0.6,1.7,0.8,2.7,0.7l10.3-1.2l-1,4.4l-11.5,5.5    c-1,0.5-2.1,0.5-3,0.1c-5.5-2.1-23.8-9.1-23.3-10.1C112,94.4,105.3,73.2,105.3,73.2z"/>
		<path fill="#E5E5E5" d="M228.3,194v67.4c0,1.4-1.1,2.5-2.5,2.5h-0.6c-1.4,0-2.5-1.1-2.5-2.5V194c0-1.4,1.1-2.5,2.5-2.5h0.6    C227.2,191.5,228.3,192.6,228.3,194z"/>
		<path fill="#C4C3C9" d="M247.3,195.6H36.9c-1.4,0-2.5-1.1-2.5-2.5v-0.6c0-1.4,1.1-2.5,2.5-2.5h210.4c1.4,0,2.5,1.1,2.5,2.5v0.6    C249.8,194.5,248.6,195.6,247.3,195.6z"/>
		<path fill="#FFD300" d="M223.9,190.2H185c-0.8,0-1.4-0.6-1.4-1.4v-3c0-0.8,0.6-1.4,1.4-1.4h38.9c0.8,0,1.4,0.6,1.4,1.4v3    C225.3,189.5,224.7,190.2,223.9,190.2z"/>
		<path fill="#1536FB" d="M226.9,184.5H188c-0.8,0-1.4-0.6-1.4-1.4v-2.5c0-0.8,0.6-1.4,1.4-1.4h38.9c0.8,0,1.4,0.6,1.4,1.4v2.5    C228.3,183.9,227.6,184.5,226.9,184.5z"/>
		<path fill="#FF5748" d="M223.9,179.4H185c-0.8,0-1.4-0.6-1.4-1.4v-2c0-0.8,0.6-1.4,1.4-1.4h38.9c0.8,0,1.4,0.6,1.4,1.4v2    C225.3,178.8,224.7,179.4,223.9,179.4z"/>
		<rect x="113.7" y="137.6" fill="#232323" width="60.1" height="37.1"/>
		<circle fill="#FFD300" cx="154.2" cy="95.5" r="1.8"/>
		<circle fill="#FFD300" cx="154.2" cy="103.8" r="1.8"/>
		<circle fill="#FFD300" cx="154.2" cy="112.1" r="1.8"/>
		<circle fill="#FFD300" cx="154.2" cy="120.4" r="1.8"/>
		<path fill="#FFFFFF" d="M131.7,163.6c0,0.2,0,0.4,0,0.6c-4.5,0.2-4.8,2-4.8,4.4c0,1.9,0.6,3.2,1.7,4c0.8,0.5,1.7,0.7,2.7,0.7    c1.4,0,2.8-0.4,3.7-0.8l0.2-0.1h0.1c0.8,0.9,1.7,1.6,2.7,2.2c1.2,0.7,2.6,0.6,4,0.6s2.8,0.1,4-0.6c3.7-2.1,6.3-6.7,6.3-11    C144.2,163.7,135.6,163.6,131.7,163.6z M129.6,171.1c-0.7-0.5-1-1.3-1-2.6c0-1.8,0-2.6,3.4-2.7c0.4,1.9,1.1,3.7,2.3,5.2    C133.2,171.3,130.9,172,129.6,171.1z"/>
		<path fill="#FFC97E" d="M147.5,95.8c0,0,5.5-0.8,6.1-1.2c0,0,1.5-0.6,0.9,0.6s-2.6,1.6-2.6,1.6s0.2,0.9,0,2.9    c-0.2,1.9-4,0.8-4,0.8L147.5,95.8z"/>
		<polygon fill="#24374E" points="142,149.2 137.7,149.2 135.5,137.6 143.7,137.6   "/>
		<g>
			<path fill="#EDB772" d="M70.4,83.2c0,0,2.1,31.5,2.5,39.1c0.1,1,0.5,1.9,1.2,2.6L91.8,142l-4,2L66,128.7c-1-0.5-1.7-1.3-2-2.3     c-1.9-5.6-7.9-24.2-6.9-24.4C58.3,101.7,70.4,83.2,70.4,83.2z"/>
			<path fill="#EDB772" d="M104.3,155.9c-1.2-0.8-2.3-3.2-3.9-4.1c-1.6-0.9-0.8-2.1-0.5-2.5l0,0c0.5-0.7,1.5-2.1,2.4-1.3     c2.8,2.5,3.6,1.4,4.5,2l0,0c1.6,1,2.1,3.2,1,4.8l0,0C106.7,157.5,104.3,155.9,104.3,155.9z"/>
		</g>
		<g>
			<path fill="#FFC97E" d="M97.1,266.3h-2.2c-1.8,0-3.7,1-4.3,2.3l0,0c-1.2,0.3-2.1,1.2-2.1,2.1v2.6c0,0.1,0,0.3,0,0.5v1     c0,1.3,1.4,2.3,3.2,2.3h2.2c0.7,0,1.3-0.2,1.8-0.4c1.3-0.5,2.5-1.4,2.9-2.3l4.8-4.8C104,268.2,98.9,266.3,97.1,266.3z"/>
			<path fill="#383838" d="M97.1,266.3h-2.2c-1.8,0-3.7,1-4.3,2.3l8.7,1.3c1.7,0.2,0.6,1.9,0.3,2.2c-0.8,0.7-2.6,2.6-6.1,2.2     c-1.2-0.1-4.8-0.9-5-1v1.4c0,1.3,1.4,4,3.1,4h2.2c1.6,0,7.7-5,9.6-9.2C104,268.2,98.9,266.3,97.1,266.3z"/>
			<path fill="#EFC0A0" d="M64.5,261.3h-2.2c-1.8,0-3.7,1-4.3,2.3l0,0c-1.2,0.3-2.1,1.2-2.1,2.1v2.6c0,0.1,0,0.3,0,0.5v1     c0,1.3,1.4,2.3,3.2,2.3h2.2c0.7,0,1.3-0.2,1.8-0.4c1.3-0.5,2.5-1.4,2.9-2.3l4.8-4.8C71.4,263.3,66.2,261.3,64.5,261.3z"/>
			<path fill="#383838" d="M67.8,261.5l-5.5-0.2c-1.8,0-3.7,1-4.3,2.3l5.9,0.5c1.3,0.1,2.7,0.4,3.8,1.2c0,0,0.2,0.6,0.3,1     c0.2,0.9-0.9,2.5-2.1,2.7c0,0-3.8,0.9-5,1s-4.8-1.5-5-1.6v1.4c0,1.3,1.4,4,3.1,4h2.2c3.4,0,4.1-1.4,4.6-1.7     c1.2-1.1,4.1-1.4,5.9-5.6C72.3,265.2,69.6,261.5,67.8,261.5z"/>
			<path fill="#182631" d="M55.9,157.2c0,0-0.4,6.2,0,12.3c1.7,25.9,0,76.3,0.1,86.4c0,2-0.1,12.9-0.1,12.9s2.2,0.6,5,0.5     c5.8-0.2,7-3.1,7-3.1L80,183c0.1-0.7,1.1-0.6,1.1,0.1c0.8,19,5.5,86.6,7.4,89.3c0,0,9.7,1.8,10.6-1.1     c0.8-2.9,9.9-102.9,6.9-116.2C102.9,142,55.9,157.2,55.9,157.2z"/>
			<path fill="#FFC97E" d="M99.2,29c10.6,3.7,13.9,19.8,9.6,30.4c-0.7,1.8-3.9,9-11.9,12.2c-5.5,2.2-13.9,2.7-19.8-2.3     C69.8,63,70.9,52,73,46.1C76.7,35.5,88.9,25.4,99.2,29z"/>
			<path fill="#FF6B7C" d="M121.7,84.9c-4.8-3.4-17.8-15.9-21.3-16.4c0,0-17,2.6-24.7,1.2C68.5,68.3,61.1,82.2,61.4,91     c0.2,5.3,3.1,22.8,3.1,24.5c0,23.4-10.8,28.4-8.6,41.7c10.8-1.3,23.5,7.2,34.5,7.4c7.3,0.1,18-3.6,17.2-6.8     c-5.4-21.6,2.9-48,3-52c0.2-8.7-1.2-10.1-1.4-11.3c5.3,3.1,3.8,3,9.2,5.1C118.4,99.6,121.7,91.7,121.7,84.9z"/>
			<path fill="#FF3F5F" d="M55.7,86.9c1.9-10.5,7.4-10,9.5-21c2.1-10.7-2.4-14.4,1.8-22.4c1.6-3.2,3.2-4.3,6.8-11     c3.4-6.3,2.8-6.6,4.3-8.3c5.4-5.7,16.5-5.5,23.4-1.1c3,1.9,4.7,4.3,5.4,5.3l0,0l0,0c0,0,1.5,3.4,1.4,9.7     c-0.2,12.9-3,23.7-5.1,31.7c0.2,0.1,0.8,0.6,1,0.7c-4.9,16.8-13.5,24.3-22.4,31.8c-3.8,3.2-12.1,10-17.9,9.3     C64,111.7,57.1,89.3,55.7,86.9"/>
			<path fill="#1F2D3D" d="M55.7,85.8c1.9-10.5,7.4-10,9.5-21C67.3,54,62.9,50.3,67,42.3c1.6-3.1,3.2-5.2,3.9-6     c5.1-6.2,3.5-9.6,7.2-13.3c5.3-5.2,16.2-5.7,23.4-1.1c3,1.9,4.7,4.3,5.4,5.3l0,0l0,0c0,0,3,3.3,2.9,9.5     c-0.6,41.9-27.9,64.4-27.9,64.4C76.2,106,68.1,112.6,62,110C55.5,107.1,54.1,94.6,55.7,85.8z"/>
		</g>
		<g>
			<path fill="#00E782" d="M249.6,223.1c3.6,0.2,4.4,1.9,6.7,1.2c3.2-1,4.3-5.2,4.4-5.5c0.3-1.4,0.2-2.8-0.2-5.7     c-0.6-4.3-1.2-5-0.9-7.1c0.2-1.6,0.6-1.9,1.9-5c1.9-4.5,2.8-6.8,2.8-9.4c0-2.4-0.6-4.4-1.1-5.9c-0.2-0.7-0.8-2.5-2.1-4.8     c-2.4-4.3-3.8-4.1-4.6-6.4c-1.2-3.6,1.6-5.1,1-9c-0.6-4.1-4.7-8.7-9.7-9.1c-6.1-0.5-11.3,5.3-11.9,10c-0.4,3.3,1.6,4.9,0.5,8.7     c-0.8,2.7-2,2.6-3.5,6c-0.6,1.2-2,4.6-1.7,8.7c0.1,1.7,1.1,4.3,2.9,9.3c0.8,2.1,1.2,3,1.3,4.6c0.2,2.6-0.6,4.8-0.9,5.9     c-1,2.9-1.8,2.8-2,4.6c-0.4,2.7,1.1,5,1.8,6.1s2.6,4.1,5.8,4.8C243.7,225.9,244.8,222.9,249.6,223.1z"/>
			<path fill="#098C4A" d="M247.2,268.6c-0.1-12-0.1-24-0.1-36v-18c0-1.5-0.1-3,0.2-4.5s0.8-2.9,1.5-4.3c1.4-2.7,3.8-4.8,6.4-6.2     c-2.6,1.5-4.9,3.6-6.3,6.3c-0.7,1.3-1.2,2.7-1.4,4.2c-0.3,1.5-0.2,3-0.2,4.5v18C247.3,244.6,247.3,256.6,247.2,268.6z"/>
			<path fill="#098C4A" d="M247.2,228.7c-0.1-3.4-0.1-6.8,0-10.2c0-3.4,0.1-6.8,0.2-10.2c0-1.7,0.1-3.4,0.1-5.1     c-0.1-1.7-0.4-3.4-1.1-4.9c-1.3-3.1-3.8-5.7-6.8-7.3c3,1.6,5.5,4.1,6.9,7.3c0.7,1.6,1.1,3.3,1.1,5s-0.1,3.4-0.1,5.1L247.2,228.7z     "/>
			<path fill="#E2E3E9" d="M230.9,249l6,19.2c0.3,1,1.3,1.7,2.4,1.7h15.8c1.1,0,2-0.7,2.4-1.7l6-19.1L230.9,249z"/>
		</g>
		<polygon opacity="0.23" fill="#FFACB5" enable-background="new    " points="103.6,73.5 121.7,84.9 104.3,70.6   "/>
		<path opacity="0.39" fill="#10171C" enable-background="new    " d="M55.9,169.5c0.6,16,0.7,29,0.7,37.8c0,11.5-0.3,19-0.6,48.6    c-0.1,5.5-0.1,10-0.1,12.9c1.3,0.6,3.4,1.4,5,0.5c4-1.9,2.3-10.7,3.4-21.6c0.6-6.4,1.7-8.8,5-20.5c2.7-9.6,6.5-24,10.7-44.2    c0.2-0.4,0.4-0.5,0.6-0.5c0.3,0,0.5,0.2,0.5,0.5c0.8,19,5.5,86.6,7.4,89.3c2.2-4.6,5-11.5,7.2-20.2c3.2-13,1.8-17.7,2.9-40.8    c1.2-24.8,3.6-34.4-1.4-37.2c-3.8-2.1-7.4,2.1-16.1,2.9C70.9,178.2,62,173.7,55.9,169.5z"/>
		<path fill="#18242D" d="M84.8,75.3c11.3-8.2,15.1-18.4,17.8-17.3c2.1,0.9,1.2,7.4,1,8.9c-2,15.3-13.2,27.2-21.8,34.3l0,0    C74,108.7,65.7,112.5,62,110c-4.5-3.1-2.7-16.1,4-23.9C71.3,79.9,75.5,82.1,84.8,75.3z"/>
		<path fill="#F2F2F2" d="M138.2,173.8c0.5,1.1,2.5,1.2,3.9,1.3c1.8,0.1,3.4-0.2,4-0.6c3.7-2.1,6.3-6.7,6.3-11    c-0.6,1.2-1.6,2.8-3.5,3.8c-3.1,1.7-5.6,0-8.4,2C138.9,170.6,137.6,172.7,138.2,173.8z"/>
	</g>
</g>
<g id="Layer_3" display="none">
	<g display="inline">
		<path opacity="0.45" fill="#F2F2F2" enable-background="new    " d="M297.4,161.6c-3.9-13.5-13.4-12.3-18.3-28.2    c-5.6-18,5.3-25.3,1.6-39.3c-3.7-13.6-16.1-14.8-65.8-39.8c-36.6-18.4-48.1-26.9-63.7-22.2c-5.7,1.7-15.9,6.4-25,11.6    c-13.9,8.1-17.1,12.9-24.5,13.4c-6.3,0.5-15.4-2.2-27.2-16.8l0,0c-15.2-18.3-38-29-62-29l0,0c-6.1,0-11,4.9-11,10.9v129.5    c2,7.5,2.7,14.2,2.8,19.9c0.1,7.9-1.1,10.2-0.4,17.1c1,10.3,5,17.7,5.7,19.1c3.6,6.5,8.7,11,18.8,19.7    c8.4,7.2,15.1,12.1,16.2,12.9c23.2,17,34.8,25.5,42.3,26.9c18.7,3.5,36.7-5,41.9-7.5c7.7-3.6,6.6-4.9,12.5-7    c15.7-5.8,23.4,1.4,46.5,2.6c22.2,1.1,39-4.4,46.9-7.1c7.5-2.5,12.8-5.2,17.3-8c4.7-3,10.9-7.5,17.8-15.4    C281.3,211.6,304.2,185.3,297.4,161.6z"/>
		<path fill="#F2F2F2" d="M289.3,197.5c12.8-15.1,6.9-38.4,6.2-40.8c-3.8-14.4-11.5-16.6-24.9-35c-17.1-23.4-10.6-27.9-26.3-50.3    c-7.4-10.6-29.3-39-51.3-39.1c-17-0.1-19.5,12.7-47.2,16.6c-8.6,1.2-21.4,3.4-35.5-2.3c-2.3-0.7-11.1-4.5-19.3-13    c-8.4-8.8-6.6-12.7-13.2-19.9C65,0,45.1,0,42.8,0c-4.7,0.1-20.5,0.3-30.4,11.4c-5.6,6.3-8,14.6-7.2,35.3    c1.4,37.6,10.7,40.1,10.6,66.1c0,17.7-4.3,20.1-6.9,58.7C8,184,7.7,195.7,15.2,202.4c6.7,6,14.2,3.1,19.6,9.7    c6.4,7.9-1.2,15.4,3.2,24.9c5.9,12.7,22.5,5.4,56,21.1c6.4,3,13.2,6.7,23.1,6.6c8.3-0.1,14.7-2.9,20.1-5.3    c14-6.3,14.8-13,23.4-15.6c9.1-2.7,13.9,2.7,31.3,9.1c13.8,5.1,42.1,15.6,62.8,4.4c3.4-1.9,11.1-6,13.3-13.8    c3-11-8.3-17.6-5.5-27.1C265.2,206.6,279.1,209.5,289.3,197.5z"/>
		<g>
			<path fill="#DD5858" d="M138.9,195.8h-32.5h-6.2c-0.9,0-1.7,0.8-1.7,1.7v1.1v23h8V200c0-0.8,0.7-1.5,1.5-1.5h29.6     c0.8,0,1.5,0.7,1.5,1.5v21.5h8v-23v-1.1c0-0.9-0.8-1.7-1.7-1.7h-6.5L138.9,195.8L138.9,195.8z"/>
			<path fill="#969696" d="M110.7,219.9L110.7,219.9c0.5,0.5,0.8,1.3,0.6,2L111,223c0,0.2,0.1,0.3,0.3,0.2c0.9-0.5,1.6-1.2,1.8-2.3     c0.2-0.7,0.1-1.5-0.1-2.2c-0.7-1.7-0.8-3.6-0.3-5.4l3.2-12.5c0.4-1.6,1.4-3.1,2.6-4.3c0.4-0.4,0.7-0.9,0.9-1.5     c0.2-0.9,0.1-1.7-0.4-2.4c-0.1-0.1-0.3-0.1-0.3,0l-0.2,0.9c-0.2,0.6-0.7,1.1-1.3,1.3l0,0c-0.6,0.2-1.3,0-1.8-0.5l0,0     c-0.5-0.5-0.7-1.1-0.5-1.8l0.2-0.9c0-0.2-0.1-0.3-0.3-0.2c-0.7,0.4-1.3,1.1-1.5,1.9c-0.2,0.6-0.1,1.2,0,1.7     c0.5,1.6,0.6,3.3,0.2,5l-3.2,12.5c-0.5,1.8-1.5,3.4-3,4.5c-0.6,0.5-1,1.1-1.2,1.8c-0.3,1-0.1,2,0.5,2.9c0.1,0.1,0.3,0.1,0.3-0.1     l0.3-1.1c0.2-0.7,0.8-1.3,1.5-1.5l0,0C109.4,219.2,110.2,219.4,110.7,219.9z"/>
			<path fill="#969696" d="M124.9,191.8l-0.8,0.1l-0.6,6l1.4,2l1.1,12.5l-1.8,0.2l1.1,12.4c0.1,1.4,1.4,2.4,2.8,2.3l0,0l0,0     c1.4-0.1,2.4-1.3,2.3-2.7l-1.1-12.4l-1.8,0.2l-1.1-12.5l1-2.2l-1.7-5.7L124.9,191.8z"/>
			<path fill="#62D5E6" d="M122.6,211.5l-1.8,0.2l1.1,12.4c0.1,1.4,1.4,2.4,2.8,2.3l0,0l0,0c1.4-0.1,2.4-1.3,2.3-2.7l-1.1-12.4     l-1.8,0.2H122.6z"/>
			<g>
				<path fill="#969696" d="M130.9,193l-3,23.7l3.2,0.4l3-23.7L130.9,193z M133.1,194.3c-0.2,0-0.3-0.2-0.3-0.3      c0-0.2,0.2-0.3,0.3-0.3c0.2,0,0.3,0.2,0.3,0.3C133.4,194.2,133.2,194.4,133.1,194.3z"/>
				<polygon fill="#565656" points="131.7,195 130.8,194.9 130.8,194.8     "/>
				<polygon fill="#565656" points="131.5,196.8 130.6,196.7 130.6,196.6 131.5,196.7     "/>
				<polygon fill="#565656" points="131.2,198.6 130.4,198.5 130.4,198.4 131.2,198.5     "/>
				<polygon fill="#565656" points="131,200.4 130.1,200.3 130.1,200.2 131,200.3     "/>
				<polygon fill="#565656" points="130.8,202.2 129.9,202.1 129.9,202 130.8,202.1     "/>
				<polygon fill="#565656" points="130.5,204 129.7,203.9 129.7,203.8 130.5,203.9     "/>
				<polygon fill="#565656" points="130.3,205.8 129.4,205.7 129.4,205.6 130.3,205.7     "/>
				<polygon fill="#565656" points="130.1,207.6 129.2,207.5 129.2,207.4 130.1,207.5     "/>
				<polygon fill="#565656" points="129.8,209.4 129,209.3 129,209.2 129.9,209.3     "/>
				<polygon fill="#565656" points="129.6,211.2 128.7,211.1 128.8,211 129.6,211.1     "/>
				<polygon fill="#565656" points="129.4,213 128.5,212.9 128.5,212.8 129.4,212.9     "/>
				<polygon fill="#565656" points="129.2,214.8 128.3,214.7 128.3,214.6 129.2,214.7     "/>
				<polygon fill="#565656" points="131.1,195.9 130.7,195.8 130.7,195.8 131.1,195.8     "/>
				<polygon fill="#565656" points="130.9,197.7 130.5,197.6 130.5,197.5 130.9,197.6     "/>
				<polygon fill="#565656" points="130.7,199.5 130.2,199.4 130.3,199.3 130.7,199.4     "/>
				<polygon fill="#565656" points="130.4,201.3 130,201.2 130,201.1 130.5,201.2     "/>
				<polygon fill="#565656" points="130.2,203 129.8,203 129.8,202.9     "/>
				<polygon fill="#565656" points="130,204.8 129.5,204.8 129.6,204.7     "/>
				<polygon fill="#565656" points="129.8,206.6 129.3,206.6 129.3,206.5     "/>
				<polygon fill="#565656" points="129.5,208.4 129.1,208.4 129.1,208.3     "/>
				<polygon fill="#565656" points="129.3,210.2 128.9,210.2 128.9,210.1     "/>
				<polygon fill="#565656" points="129.1,212 128.6,212 128.6,211.9     "/>
				<polygon fill="#565656" points="128.8,213.8 128.4,213.8 128.4,213.7     "/>
				<polygon fill="#565656" points="128.6,215.6 128.2,215.6 128.2,215.5 128.6,215.5     "/>
			</g>
			<g>
				<path fill="#969696" d="M108.6,194.5c0.1,0.7-0.4,1.4-1.1,1.6c-0.7,0.2-1.5-0.3-1.7-1l-2.7,0.6c0,0-3.8,0.6-2.5,6l0.8-0.2      c0,0-0.1-1.1,0.1-2.2c0.3-1.3,2.1-1.3,2.4,0l0,0l2.7-0.6c-0.2-0.8,0.3-1.5,1.1-1.7c0.8-0.2,1.5,0.3,1.7,1l2.1-0.5l-0.8-3.5      L108.6,194.5z"/>
				<path fill="#FFC162" d="M104,199.3c0,0,2.6,6.9,3,11.1l2.3-0.5c0,0-2.8-8.6-2.6-11.2"/>
			</g>
			<g>
				<polygon fill="#FFC162" points="142.5,201.8 133.9,220.3 130.9,219 139.5,200.5     "/>
				<path fill="#EAE6FB" d="M139.5,200.5l3.4-3.7c0.1-0.1,0.1,0,0.1,0.1l-0.6,5L139.5,200.5z"/>
				<path fill="#38364C" d="M143,196.8l-0.3,2.4l-1.5-0.7l1.6-1.8C142.9,196.8,143,196.7,143,196.8C143.1,196.8,143,196.8,143,196.8      z"/>
				<path fill="#DD5858" d="M133.9,220.3l-0.7,1.5c-0.2,0.4-0.7,0.6-1.1,0.4l-1.5-0.7c-0.4-0.2-0.6-0.7-0.4-1.1l0.7-1.5L133.9,220.3      z"/>
			</g>
			<path fill="#CE4E4E" d="M145.1,231.7h-45c-0.9,0-1.7-0.8-1.7-1.7v-21.3h48.5V230C146.9,231,146.1,231.7,145.1,231.7z"/>
		</g>
		<path fill="#EFC0A0" d="M66.7,232.7v4.7l-2.5,2.3c0,0-2.4,5.2,1.1,6c0,0,8,3.1,8.4-5.6c0.5-8.6,0-10.2,0-10.2L66.7,232.7z"/>
		<g>
			<path fill="#894820" d="M66.7,237.3l-2.5,2.3c0,0-2.4,5.2,1.1,6c0,0,8,3.1,8.4-5.6c0.1-0.9,0.1-1.8,0.2-2.6c0,0-2,0.7-3.9,0.7     C67,238.1,66.7,237.3,66.7,237.3z"/>
		</g>
		<path fill="#E2AF8D" d="M36.1,69.9L36.7,92c0,0,0.2,6.4,1.7,6.4s6.7,1.1,6.9-4.6c0.1-3.2,4.6-12.5,4.7-15.5    c0.4-8.2-1.8-14.4-1.8-14.4L36.1,69.9z"/>
		<path fill="#EFC0A0" d="M111,78.6l-1.3,14c0,0-0.9,6.3-2.4,6.1c-1.5-0.2-8.6-1.6-8.2-7.2c0.2-3.2-1.3-11-1.1-14    c0.5-8.2,3.4-14.1,3.4-14.1L111,78.6z"/>
		<polygon fill="#EFC0A0" points="86.5,64 60,64 60.1,46.8 62.8,45.9 73.6,43.9 83.9,45.7 86.5,46.8   "/>
		<path fill="#FFF0C7" d="M9.4,196.1"/>
		<path fill="#894820" d="M80.2,228c0,0,0,5.4,0,7.3c0,1.7-0.2,3.4,6,3.2c4.8-0.1,11.3,0.7,13.4,0.7s2.2-1.4,2.1-3    c-0.1-2.3-11.7-2.7-12.3-3.1c0,0-3.8-0.8-3.5-6.2L80.2,228z"/>
		<path fill="#00CA9F" d="M50.5,121.2c0,0-0.3,5.3-0.1,11.3c0.5,14,11.6,88,13.7,97.7l1.5,7.7c0,0,1.2,0.8,4.1,0.8    c3,0,4.5-0.8,4.5-0.8l0.6-90.7c0,0,3.2,82.6,5.4,85.7c0,0,9.1,1.8,10-1s8.2-99.4,5.2-112.6C92.4,106.3,50.5,121.2,50.5,121.2z"/>
		<path fill="#FFFFFF" d="M83.9,45.7c-0.1,0.5-0.3,0.9-0.5,1.7c-0.8,4.8-5.1,8.5-10.2,8.5c-5.6,0-10.2-4.5-10.4-10l0,0    c-11.6,3.8-17,6.1-23.4,9c-5,7.2-3.9,24.2-3.3,24.3l14-0.9l0.6-8c0,0,0,21.3,0,26.3s-0.6,24-1.2,29.7c-0.3,2.6,10.1,3.1,26.6,0.6    c6.3-0.9,8.9-4.5,16-8c3.7-1.8,4,3.4,4,3.4c1.1,0,3.1-4,3-5.1c-0.8-6.7-2.6-23.5-2.5-31.4c0.1-6.5,0.3-16.3,0.3-16.3    s0.7,9.7,0.7,8.8l13.3,0.5c0-0.4,0.7-18.6-4.2-23.9C100.4,50.3,83.9,45.7,83.9,45.7z"/>
		<path fill="#EFC0A0" d="M99.2,92.7c0,0-1.8,10.2-1.6,13.6c0.2,3.4-6.5,14.2-6.5,14.2s0.2,1.7,1.7,2.3c2.1,0.7,3.4-0.5,3.4-0.5    s13.7-19,12.4-27C108.1,92.8,99.2,92.7,99.2,92.7z"/>
		<path fill="#FFFFFF" d="M166.9,145.3c0,25.5,5.7,49.6,15.8,71c1.4,3.1,12.9,2.3,17.8,8.7c4.9-6.4,16.6-6.2,18.2-9.5    c9.9-21.2,15.4-45,15.4-70.2c0-34.7-10.6-66.9-28.5-93.2c-2.4-3.5-7.7-3.5-10.1,0C177.5,78.4,166.9,110.6,166.9,145.3z"/>
		<path fill="#62D5E6" d="M200.5,100.7c10.5-0.1,18.2-4.7,22.1-7.7c1.5-1.2,2.1-3.2,1.5-4.9c-2.1-5.8-4.8-12.3-8.3-19    c-4.5-8.6-9.2-16-13.7-22.1c-0.7-1-2.2-1-2.9,0c-4.5,6.1-9.3,13.4-13.7,22.1c-3.6,6.9-6.4,13.5-8.5,19.5c-0.7,1.8,0,3.8,1.5,5    C182.3,96.4,190,100.8,200.5,100.7z"/>
		<path fill="#62D5E6" d="M170,174c-0.6-2.1-3.6-2.3-4.4-0.3c-6,14.8-9.1,30.7-9.1,46.7v14.4c0,1.8,1.5,3.3,3.3,3.3l0,0    c1.2,0,2.2-0.6,2.8-1.6l16.7-27.6L170,174z"/>
		<path fill="#282828" d="M118.1,262c-4,0-8.9-0.8-11.5-4.3c-1.2-1.6-1.3-3-1.3-4.2c0-1-0.1-1.9-0.9-2.9c-2.3-2.7-11.3-2.1-26.7,1.8    c-2.9,0.7-5.4,1.4-7.5,2c-7.6,2.1-11.4,3.2-15.3,1c-3.6-2-5.2-5.6-6.6-8.7c-1.8-4-3.6-10.6-2.3-19.2c1.2-8.1,0.4-13.5-0.7-21    c-1.2-9-3-21.3-2.4-44.6c0.2-9,0.7-16.1,1.1-22.3c1-15.4,1.6-23.9-3.5-36c-4.4-10.4-11.2-18.2-11.3-18.3l-3.5-3.4l0.7-0.7l3.5,3.4    c0.3,0.4,7.1,8.1,11.5,18.6c5.2,12.3,4.6,20.8,3.6,36.4c-0.4,6.3-0.9,13.3-1.1,22.3c-0.6,23.3,1.1,35.5,2.4,44.5    c1.1,7.6,1.8,13.1,0.7,21.2c-1.3,8.5,0.5,14.8,2.2,18.7c1.4,3.1,2.8,6.5,6.2,8.3c3.6,2,7,1,14.5-1.1c2.2-0.6,4.6-1.3,7.5-2    c21.4-5.5,26.1-3.5,27.7-1.5c1,1.2,1.1,2.4,1.1,3.5c0.1,1.1,0.1,2.3,1.1,3.7c4.3,5.8,15.9,3.5,16.4,3.4c2.2-0.5,8.9-1.8,11.3-6.8    c0.7-1.4,0.7-2.4,0.6-3.4c0-1.1,0-2.3,0.8-3.8c2.4-4.6,8.3-6,11.7-6.5c4-0.6,6.2,0,8.6,0.6c2.1,0.5,4.2,1.1,7.8,0.8    c2.8-0.2,11.3-0.9,15.2-7.1c3-4.8,1.7-10.7,1-12.9l1-0.3c0.9,3,2,8.7-1.1,13.7c-4.2,6.7-13.1,7.4-16,7.6c-3.8,0.3-6-0.3-8.2-0.8    c-2.3-0.6-4.4-1.1-8.2-0.5c-5.4,0.8-9.3,3-10.9,6c-0.7,1.3-0.7,2.3-0.7,3.4c0,1.1,0,2.3-0.7,3.9c-2.7,5.3-9.7,6.8-12,7.3    C123.8,261.5,121.2,262,118.1,262z"/>
		<path fill="#EFC0A0" d="M36.2,91.9c0,0,2.1-2.2,3.7-1.3c1.6,0.9,4.6,5.6,4.5,6.4c-0.2,1.6-3.6,3-3.8,3.3s-2.7,1.7-3.8-0.3    c-1.1-2.1-4.1-5.9-4.2-6.3c-0.1-0.4-0.3-1.5,0.4-2.1c1.3-1.2,3-1.2,3.2-0.5C36.5,91.5,36.2,91.9,36.2,91.9z"/>
		<g>
			<path fill="#282828" d="M30.2,85.3L30.2,85.3c-1.9,1.1-4.3,0.5-5.3-1.4l-2.4-4c-0.3-0.4-0.1-1,0.3-1.3l5.1-3     c0.5-0.3,1-0.1,1.3,0.3l2.4,4C32.7,81.9,32.1,84.2,30.2,85.3z"/>
			<g>
				<path fill="#282828" d="M24.5,79.5L24.5,79.5c-0.2,0.1-0.4,0-0.5-0.1l-2-3.5c-0.1-0.2,0-0.4,0.1-0.5l0,0c0.2-0.1,0.4,0,0.5,0.1      l2,3.5C24.8,79.2,24.7,79.4,24.5,79.5z"/>
				<path fill="#282828" d="M27.9,77.6L27.9,77.6c-0.2,0.1-0.4,0-0.5-0.1l-2-3.5c-0.1-0.2,0-0.4,0.1-0.5l0,0c0.2-0.1,0.4,0,0.5,0.1      l2,3.5C28.1,77.3,28,77.5,27.9,77.6z"/>
			</g>
		</g>
		<path fill="#E2AF8D" d="M64.2,45.8c2.7,3,6.6,4.5,9.9,5c2.2,0.3,4.2,0.1,6-0.4c0.5-1.9,1.7-3.1,2.1-3.5    c-5.1-1.8-10.2-3.6-15.4-5.4C66,43.3,65.1,44.7,64.2,45.8z"/>
		<path fill="#EFC0A0" d="M92.7,22.3c5.6,6.3,1.8,18.1-5,23.4c-1.2,0.9-5.9,4.4-12.4,3.6c-4.5-0.6-10.2-3.3-12.2-8.8    c-2.5-6.8,2.3-13.6,5.9-16.7C75.4,18.3,87.2,16.2,92.7,22.3z"/>
		<path fill="#323857" d="M66.1,39.9c-0.2,0.8,0.1,3.7-3,1.8c-0.7-0.4-2.6-1.5-4-3.3c-3-4.1-4.4-12.6-2.5-20.2    c0.4-1.7,1.1-3.4,2.6-4.9c1.8-1.7,3.9-2.1,5-2.4c6.7-1.6,6.8-5.4,14.6-8.4c1.5-0.6,7-2.3,13.6-1c2.6,0.5,5.1,1,7.4,3    c3.8,3.3,5.2,9.3,3.4,14.2c-2.4,6.6-9.5,8.6-10.3,8.8c-7.4,1.9-10.2-3.2-16.9-0.8c-4.4,1.6-8.6,5.7-9.1,8.7    C66.6,37.3,66.3,39,66.1,39.9z"/>
		<ellipse fill="#323857" cx="199.8" cy="128.6" rx="12.6" ry="12.4"/>
		<path fill="#62D5E6" d="M230.9,174c0.6-2.1,3.6-2.3,4.4-0.3c6,14.8,9.1,30.7,9.1,46.7v14.4c0,1.8-1.5,3.3-3.3,3.3l0,0    c-1.2,0-2.2-0.6-2.8-1.6l-16.7-27.6L230.9,174z"/>
		<path fill="#323857" d="M200.5,214.1c-6.3,0-12.5-0.8-18.3-2.4c-1.1-0.3-2.3,0.3-2.8,1.4c-1.2,2.7-1.7,3.6-2.6,6.4    c-0.4,1.2,0.3,2.6,1.5,3c7.2,2.5,13.9,3.5,22.3,3.5c8.4,0,15-0.9,22.3-3.5c1.2-0.4,1.9-1.8,1.5-3c-0.9-2.8-1.4-3.7-2.6-6.4    c-0.5-1.1-1.7-1.7-2.8-1.4C213,213.3,206.8,214.1,200.5,214.1z"/>
	</g>
	<g id="Layer_4" display="inline">
	</g>
</g>
<g id="Layer_5" display="none">
	<g display="inline">
		<path opacity="0.45" fill="#F2F2F2" enable-background="new    " d="M293.2,188c-3.8-13.3-13.1-12.2-17.9-27.9    c-5.5-17.8,5.2-25,1.5-38.8c-3.6-13.5-15.7-14.7-64.4-39.3c-35.7-18.1-47-26.6-62.3-22c-5.6,1.7-15.6,6.3-24.5,11.5    c-13.6,8-16.7,12.7-23.9,13.3c-6.2,0.5-15-2.2-26.6-16.6l0,0C60.2,50.1,38,39.6,14.5,39.6l0,0c-5.9,0-10.8,4.8-10.8,10.8v127.9    c2,7.4,2.7,14,2.7,19.6c0.1,7.8-1.1,10.1-0.4,16.9c1,10.2,4.9,17.5,5.6,18.9c3.5,6.4,8.5,10.8,18.4,19.4    c8.2,7.1,14.8,12,15.8,12.8c22.7,16.8,34,25.2,41.4,26.6c18.3,3.5,35.8-4.9,40.9-7.4c7.5-3.6,6.5-4.8,12.2-6.9    c15.3-5.7,22.9,1.4,45.5,2.6c21.7,1.1,38.1-4.4,45.9-7c7.3-2.5,12.5-5.1,16.9-7.9c4.6-2.9,10.7-7.5,17.4-15.3    C277.4,237.4,299.9,211.4,293.2,188z"/>
		<path fill="#F2F2F2" d="M294,188c-6.3-14.4-18.7-11.5-26.9-27.9c-8.4-16.8,2.1-24.6-3.3-44.6c-7-25.4-32.4-42.8-53.4-49.2    c-16.1-5-29.9-3.6-36-2.7c-20.7,3.1-34.7,13.3-40.6,18.3c-2,1.2-15.4,8.5-31.2,3c-13.8-4.8-19.9-16.1-21.2-18.5    C78,61.9,70.1,53,56.9,48.3c-5.5-2-18.3-6.5-31.4-0.8C13.9,52.6,8.5,63,7.1,65.9C-1.7,83.5,7,98.2,9.4,124.6    c1.1,12.3,1.2,30.6-4.9,53.7c0,5,0.5,11.9,2.7,19.6c2.2,7.6,5.5,14.6,9.9,21l0,0c-0.5,4.6,21,23.3,20.9,33.8    c-0.1,5-3.5,6.2-3.7,9.7c-0.7,17.3,79.2,38.3,94.6,22.6c1.3-1.4,7.3-7,16.5-12.9c0,0,3.2-1.7,6.5-3c26.4-10.2,55.5-1.3,59.6,0.1    c7.9,2.5,12.7,5.2,20.8,4.5c2.8-0.2,13.1-1.1,16.9-7.9c3.1-5.6-0.7-10.6,2.5-14.1c3.3-3.6,9.4-1.1,14.9-1.1    C281,250.5,304.8,212.8,294,188z"/>
		<g>
			<g>
				<path fill="#894820" d="M151.1,219c0,0-2.3,4.5-3.1,6c-0.7,1.4-1.5,2.7,3.6,5.2c4,1.9,8.9,5.3,10.6,6.2c1.7,0.9,2.4-0.3,3-1.6      c0.9-2-8.4-7.1-8.7-7.7c0,0-2.7-2.2-0.2-6.5L151.1,219z"/>
				<path fill="#894820" d="M111.7,250.2c0,0-3.1,4-4.1,5.3c-1,1.2-2,2.4,2.6,5.7c3.5,2.6,7.8,6.9,9.3,8c1.5,1.2,2.4,0.2,3.2-1.1      c1.2-1.8-6.9-8.5-7.1-9.2c0,0-2.3-2.7,1-6.5L111.7,250.2z"/>
				<rect x="133.9" y="176.7" fill="#4C4C4C" width="1.7" height="64.1"/>
				<path fill="#4C4C4C" d="M134.7,247.7c-2.2,0-3.9-1.8-3.9-3.9s1.8-3.9,3.9-3.9c2.2,0,3.9,1.8,3.9,3.9S136.9,247.7,134.7,247.7z       M134.7,241.7c-1.1,0-2,0.9-2,2s0.9,2,2,2s2-0.9,2-2C136.8,242.6,135.9,241.7,134.7,241.7z"/>
				<path fill="#4C4C4C" d="M130.2,174.4c0.1,2.7,6.2,5.6,11.4,5.2c3.9-0.3,4.8-2.2,8.8-1.8c2.1,0.2,3.7,1,6.3,0.3      c1.2-0.3,2.8-0.7,3-1.6c0.7-2.3-6.5-8.5-14.5-9.1C138,167.1,130.1,171.3,130.2,174.4z"/>
				<path fill="#38364C" d="M147.3,207.8l2-3.2c0,0,3.8-21.6-6.9-31.1c0,0,8,2.4,18.5,2.4c9.8,0,15.6-2.2,15.6-2.2l-26.1,46l7.9,4.5      L193,173c0,0,3.9-10.4-10-10.9c-5.3-0.2-11.5-2.1-17-2.5c-8.8-0.7-16,0-16,0l-32.6,1.3c0,0-0.9-0.9-1.6,3.8c0,0,0,6.1,8.2,17.4      l10.7,16.8c0,0,3.2,5.2-0.7,11.3"/>
				<path fill="#EFC0A0" d="M67.7,112c0.6,0.4,24.4,14.9,24.4,14.9s6.7-6.7,6.8-6.8s9.6,11,9.6,11s-5.3,5.5-7.2,6.5      c-2.8,1.4-9.5,1.9-16.5-4.5c-7.1-6.4-23.5-18.2-23.9-18.2s-8.5,0.8-9.3-2.4c-0.8-3.2-0.3-1.7-0.3-1.7S62.8,110.5,67.7,112z"/>
				<path fill="#EFC0A0" d="M162.6,123.8l4.5,8.9l29.9-3.1c0,0,13.8-2,15,0.3c0,0-5,4.1-10,4.5c-9.4,0.6-11.4,2.4-18.8,4.8      s-20,4.8-22.6,2c-3.8-4.1-6.3-6.1-8.9-11.6C149.1,124.3,162.6,123.8,162.6,123.8z"/>
				<polygon fill="#EFC0A0" points="141,116.9 124.5,116.9 124.5,103.8 125.3,103.8 128.3,99.7 136.7,99.3 138.4,103.2     "/>
				<g>
					<path fill="#FFC162" d="M95.2,123.7l15.7-16.3c0,0,1.4-3.4,8.1-3.4c1.3,0,4.5-0.1,6.5-0.1c0.7,2.6,3.8,3.3,6.4,3.2       c2.8-0.1,6.1-1.9,6.7-3.9c3.2-0.2,6.2-0.3,6.2-0.3s6.1-0.5,10.2,6.4c4.1,7,7.7,14.5,7.7,14.5l-11.3,6.1l-1.3-3.4       c0,0-0.8,28.4,0,32.9c0.5,2.5-33.8,3.2-33.8,3.2l-3.8-32.6l-5.7,3.9L95.2,123.7z"/>
					<path fill="#FFD300" d="M115.8,163.2l-3.7-32.2l-5.3,3.6l-12.2-10.9l15.9-16.6c0.3-0.6,2.1-3.6,8.5-3.6c1.2,0,4.5-0.1,6.4-0.1       h0.4l0.1,0.4c0.8,2.9,4.7,2.9,5.9,2.9c2.7-0.1,5.7-1.8,6.3-3.5l0.1-0.3h0.3c3.2-0.2,6.2-0.3,6.2-0.3c0.2,0,6.4-0.5,10.6,6.7       c4.1,6.9,7.7,14.5,7.7,14.6l0.2,0.4l-12.1,6.6l-0.6-1.6c-0.2,7-0.6,26.7,0.1,30.4c0,0.2,0,0.5-0.2,0.7       c-1.9,2.3-28.7,3-34.1,3.1L115.8,163.2z M112.8,129.2l3.8,32.9c15.3-0.4,31.6-1.5,32.9-2.7c-0.8-4.8,0-31.8,0-32.9l0.1-2.4       l2,5.1l10.4-5.6c-0.8-1.7-4-8.1-7.5-14.1c-3.9-6.6-9.7-6.2-9.7-6.2s-2.9,0.1-5.9,0.3c-1,2.2-4.3,3.8-7,3.9       c-3.4,0.2-5.9-1-6.7-3.2c-2,0.1-5,0.1-6.1,0.1c-6.2,0-7.5,3-7.6,3.1l-0.1,0.1l-15.3,16l10.9,9.7L112.8,129.2z"/>
				</g>
				<path fill="#E2AF8D" d="M126.5,102c2.4,1.1,5.2,1,7.3,0.4c1.4-0.4,2.6-1.1,3.5-1.8c-0.2-1.3,0.2-2.3,0.3-2.7      c-3.6,0.3-7.2,0.5-10.8,0.8C126.9,100,126.7,101.1,126.5,102z"/>
				<path fill="#094468" d="M133.9,70.6c0.9,1.3,1.9,3.3,2.6,5.9c1.3,4.9,1,11.8-1.3,12.5c-2.8,0.9-10.7-7-8.3-13.1      C128.4,72,133.2,70.7,133.9,70.6z"/>
				<path fill="#EFC0A0" d="M126.2,75.4c6.2-1.9,13.1,4.5,14.7,10.9c0.3,1.1,1.2,5.5-1.4,9.7c-1.8,2.9-5.5,6-10,5.6      c-5.5-0.4-8.7-5.9-9.8-9.4C118,86,120.2,77.2,126.2,75.4z"/>
				<path fill="#323857" d="M135.9,74.4c2.5-2.2,4.7-4.1,4.5-6c-0.4-3.4-8.6-6.6-12.5-4c-1.6,1.1-1.1,2.2-3.3,4.2      c-2.3,2.1-3.9,1.7-7.1,3.6c-1.7,1-4.1,2.4-5.2,4.8c-1.7,3.6,0.1,7.6,2.6,13c2,4.4,4.4,9.5,7.5,9.4c1.3-0.1,2.7-1.1,3.3-2.3      c1.4-2.9-2.4-5.3-2.5-10.7c0-1.1-0.1-5.2,2.4-7.1c1.7-1.3,3-0.4,6.3-2.1C133.8,76.2,135,75.2,135.9,74.4z"/>
				<path fill="#4C4C4C" d="M134.7,294.5c-28,0-50.8-22.8-50.8-50.8s22.8-50.8,50.8-50.8s50.8,22.8,50.8,50.8      S162.7,294.5,134.7,294.5z M134.7,196.4c-26.1,0-47.3,21.2-47.3,47.3s21.2,47.3,47.3,47.3s47.3-21.2,47.3-47.3      S160.8,196.4,134.7,196.4z"/>
				<polygon fill="#4C4C4C" points="137.8,242.9 136.9,241.4 153.7,231.2 155.4,232.2     "/>
				
					<rect x="117.4" y="248.4" transform="matrix(0.8546 -0.5192 0.5192 0.8546 -111.1758 101.3737)" fill="#4C4C4C" width="16.2" height="1.7"/>
				<path fill="#757575" d="M134.7,288.8c-24.9,0-45.1-20.2-45.1-45.1s20.2-45.1,45.1-45.1s45.1,20.2,45.1,45.1      S159.6,288.8,134.7,288.8z M134.7,199.6c-24.3,0-44.1,19.8-44.1,44.1s19.8,44.1,44.1,44.1s44.1-19.8,44.1-44.1      S159.1,199.6,134.7,199.6z"/>
				<path fill="#38364C" d="M124.1,181.8l10.7,16.8c0,0,1.2,5.3-2.7,11.4c-3.9,6.1-20.9,40.8-20.9,40.8s7,6.9,7.7,6.2      s28.4-49.3,28.4-49.3l2-3.2c0,0,3.8-21.6-6.9-31.1L124.1,181.8z"/>
			</g>
			<path fill="#62D5E6" d="M88.1,46.3c-3.5-0.1-6.1-3.3-5.6-6.4c0.3-2.6,2.6-4.7,5.4-4.8c0.5,0,1-0.4,1.2-0.9c1.2-3.3,4.5-5.5,8-5.3     c3.2,0.2,6,2.3,7.2,5.4c0.2,0.6,0.7,0.9,1.3,0.9c2.3,0,4.4,1.2,5.4,3c0.9,1.8,0.9,3.9-0.2,5.7c-0.8,1.4-2.4,2.3-4,2.3     C102.2,46.3,90.1,46.3,88.1,46.3z"/>
			<g>
				<path fill="#DD5858" d="M82.4,68.9H57c-0.9,0-1.6,0.7-1.6,1.6v5.7c0,0.9,0.7,1.6,1.6,1.6h25.4c0.9,0,1.6-0.7,1.6-1.6v-5.7      C84,69.6,83.3,68.9,82.4,68.9z M74.3,73.4c0,0.4-0.4,0.8-0.8,0.8h-0.1c-0.4,0-0.8-0.4-0.8-0.8v-0.1c0-0.4,0.4-0.8,0.8-0.8h0.1      C74,72.5,74.3,72.9,74.3,73.4L74.3,73.4z M78.9,73.4c0,0.4-0.4,0.8-0.8,0.8H78c-0.4,0-0.8-0.4-0.8-0.8v-0.1      c0-0.4,0.4-0.8,0.8-0.8h0.1C78.6,72.5,78.9,72.9,78.9,73.4L78.9,73.4z"/>
				<path fill="#DD5858" d="M82.4,78.7H57c-0.9,0-1.6,0.7-1.6,1.6V86c0,0.9,0.7,1.6,1.6,1.6h25.4c0.9,0,1.6-0.7,1.6-1.6v-5.7      C84,79.4,83.3,78.7,82.4,78.7z M74.3,83.2c0,0.4-0.4,0.8-0.8,0.8h-0.1c-0.4,0-0.8-0.4-0.8-0.8v-0.1c0-0.4,0.4-0.8,0.8-0.8h0.1      C74,82.3,74.3,82.7,74.3,83.2L74.3,83.2z M78.9,83.2c0,0.4-0.4,0.8-0.8,0.8H78c-0.4,0-0.8-0.4-0.8-0.8v-0.1      c0-0.4,0.4-0.8,0.8-0.8h0.1C78.6,82.3,78.9,82.7,78.9,83.2L78.9,83.2z"/>
				<path fill="#DD5858" d="M82.4,88.5H57c-0.9,0-1.6,0.7-1.6,1.6v5.7c0,0.9,0.7,1.6,1.6,1.6h25.4c0.9,0,1.6-0.7,1.6-1.6v-5.7      C84,89.3,83.3,88.5,82.4,88.5z M74.3,93c0,0.4-0.4,0.8-0.8,0.8h-0.1c-0.4,0-0.8-0.4-0.8-0.8l0,0c0-0.4,0.4-0.8,0.8-0.8h0.1      C74,92.2,74.3,92.5,74.3,93L74.3,93z M78.9,93c0,0.4-0.4,0.8-0.8,0.8H78c-0.4,0-0.8-0.4-0.8-0.8l0,0c0-0.4,0.4-0.8,0.8-0.8h0.1      C78.6,92.2,78.9,92.5,78.9,93L78.9,93z"/>
			</g>
			<g>
				<g>
					<path fill="#FFC162" d="M146,21c0.8,0.8,1.4,1.7,1.9,2.7c1.3,2.4-0.5,5.4-3.2,5.4h-7.5h-6.5c-2.7,0-4.5-2.8-3.3-5.2       c0.6-1.1,1.3-2.1,2.2-3c1.2-1.2,3-1.3,4.5-0.4c0.9,0.6,2.2,1.1,3.6,1.1c1.5,0,2.9-0.5,4-1.1C143.1,19.6,144.9,19.8,146,21z"/>
					<path fill="#FFD300" d="M144.7,29.5h-14c-1.5,0-2.8-0.7-3.5-2c-0.7-1.2-0.8-2.7-0.2-3.9c0.6-1.2,1.4-2.2,2.3-3.1       c1.3-1.3,3.4-1.5,5.1-0.5c2.3,1.4,4.7,1.3,7.1,0c1.6-0.9,3.6-0.6,4.9,0.7c0.8,0.8,1.5,1.8,2,2.8c0.7,1.3,0.6,2.8-0.1,4.1       C147.5,28.8,146.2,29.5,144.7,29.5z M132.1,20.3c-0.8,0-1.6,0.3-2.1,0.9c-0.9,0.8-1.6,1.8-2.1,2.9c-0.5,0.9-0.4,2.1,0.1,3       c0.6,1,1.6,1.5,2.7,1.5h14c1.1,0,2.1-0.6,2.7-1.5c0.6-1,0.6-2.1,0.1-3.1c-0.5-0.9-1.1-1.8-1.9-2.6l0,0c-1-1-2.5-1.2-3.7-0.5       c-2.8,1.5-5.5,1.6-8.1,0C133.3,20.5,132.7,20.3,132.1,20.3z"/>
				</g>
				<g>
					<path fill="#FFC162" d="M137.9,20.2h-0.4c-2.7,0-4.9-2.2-4.9-4.9v-4.5c0-2.7,2.2-4.9,4.9-4.9h0.4c2.7,0,4.9,2.2,4.9,4.9v4.5       C142.8,18,140.6,20.2,137.9,20.2z"/>
					<path fill="#FFD300" d="M138,20.7h-0.7c-2.9,0-5.3-2.4-5.3-5.3v-4.7c0-2.9,2.4-5.3,5.3-5.3h0.7c2.9,0,5.3,2.4,5.3,5.3v4.7       C143.3,18.4,140.9,20.7,138,20.7z M137.4,6.5c-2.4,0-4.3,1.9-4.3,4.3v4.7c0,2.4,1.9,4.3,4.3,4.3h0.7c2.4,0,4.3-1.9,4.3-4.3       v-4.7c0-2.4-1.9-4.3-4.3-4.3C138.1,6.5,137.4,6.5,137.4,6.5z"/>
				</g>
			</g>
			<g>
				<path fill="#00C18D" d="M170.7,41c-0.4-0.2-0.4-0.7,0-1l6.2-3.6l1.4-0.8c0.3-0.2,0.4-0.5,0.2-0.8c-1.8-2.7-4.9-4.6-8.4-4.7      c-5.6-0.1-10.4,4.5-10.5,10.1c-0.1,5.8,4.5,10.5,10.3,10.5c3.6,0,6.7-1.8,8.6-4.6c0.2-0.3,0.1-0.6-0.2-0.8l-1.4-0.8L170.7,41z"/>
				<path fill="#00C18D" d="M181,35.9c-0.1-0.3-0.5-0.4-0.8-0.2l-1.4,0.8l-6.2,3.6c-0.4,0.2-0.4,0.7,0,1l6.2,3.6l1.4,0.8      c0.3,0.2,0.6,0.1,0.8-0.2c0.7-1.4,1.1-3,1.1-4.7C182.1,38.9,181.7,37.3,181,35.9z"/>
			</g>
			<g>
				<path fill="#DD5858" d="M185.6,112.1c0,1,0.8,1.7,1.7,1.7H209c1,0,1.7-0.8,1.7-1.7V98.9h-25.2v13.2H185.6z"/>
				<path fill="#DD5858" d="M209,96.2c0.4,0,0.7,0.3,0.7,0.7v1h-23.1v-1c0-0.4,0.3-0.7,0.7-0.7H209 M209,95.1h-21.7      c-1,0-1.7,0.8-1.7,1.7v2h25.2v-2C210.8,95.9,210,95.1,209,95.1L209,95.1z"/>
			</g>
			<g>
				<path fill="#DD5858" d="M187.8,97.3c-0.1,0-0.1,0-0.2-0.1c-0.1-0.1-0.1-0.1-0.1-0.2s0-0.1,0.1-0.2s0.3-0.1,0.4,0      c0,0,0.1,0.1,0.1,0.2s0,0.1-0.1,0.2C188,97.3,187.9,97.3,187.8,97.3z"/>
				<path fill="#DD5858" d="M188.7,97c0-0.1,0.1-0.3,0.3-0.3l0,0c0.1,0,0.3,0.1,0.3,0.3l0,0c0,0.1-0.1,0.3-0.3,0.3l0,0      C188.8,97.3,188.7,97.2,188.7,97z"/>
				<path fill="#DD5858" d="M190.1,97.3c-0.1,0-0.1,0-0.2-0.1c0-0.1-0.1-0.1-0.1-0.2s0-0.1,0.1-0.2s0.3-0.1,0.4,0      c0,0.1,0.1,0.1,0.1,0.2s0,0.1-0.1,0.2C190.3,97.3,190.2,97.3,190.1,97.3z"/>
			</g>
			<path fill="#62D5E6" d="M195.2,66h-0.9v-2.9c0-2.1-1.7-3.8-3.8-3.8l0,0c-2.1,0-3.8,1.7-3.8,3.8V66h-0.9v-2.9     c0-2.6,2.1-4.8,4.8-4.8l0,0c2.6,0,4.8,2.1,4.8,4.8V66H195.2z"/>
			<path fill="#62D5E6" d="M190.2,63.4h0.3c-3.8,0-6.8,3.1-6.8,6.8l0,0c0,3.8,3.1,6.8,6.8,6.8h-0.3c3.8,0,6.8-3.1,6.8-6.8l0,0     C197.1,66.5,194,63.4,190.2,63.4z M190.7,73.3v1.5c0,0.2-0.1,0.3-0.3,0.3s-0.3-0.1-0.3-0.3v-1.5c-0.4-0.1-0.6-0.5-0.6-0.9     c0-0.5,0.4-0.9,0.9-0.9s0.9,0.4,0.9,0.9C191.4,72.8,191.1,73.1,190.7,73.3z"/>
		</g>
		<g>
			<g>
				<path fill="#00E782" d="M242.1,234.9c3.6,0.2,4.4,1.9,6.7,1.2c3.2-1,4.3-5.2,4.4-5.5c0.3-1.4,0.2-2.8-0.2-5.7      c-0.6-4.3-1.2-5-0.9-7.1c0.2-1.6,0.6-1.9,1.9-5c1.9-4.5,2.8-6.8,2.8-9.4c0-2.4-0.6-4.4-1.1-5.8c-0.2-0.7-0.8-2.5-2.1-4.8      c-2.4-4.3-3.8-4.1-4.6-6.4c-1.2-3.5,1.6-5.1,1-8.9c-0.6-4.1-4.7-8.7-9.7-9.1c-6.1-0.5-11.3,5.3-11.9,10      c-0.4,3.3,1.6,4.9,0.5,8.7c-0.8,2.7-2,2.6-3.5,6c-0.6,1.2-2,4.6-1.7,8.7c0.1,1.7,1.1,4.3,2.9,9.3c0.8,2.1,1.2,3,1.3,4.6      c0.2,2.6-0.6,4.8-0.9,5.9c-1,2.8-1.8,2.8-2,4.6c-0.4,2.7,1.1,5,1.8,6.1s2.6,4.1,5.8,4.8C236.2,237.7,237.3,234.6,242.1,234.9z"/>
				<path fill="#098C4A" d="M239.7,280.4c-0.1-12-0.1-24-0.1-36v-18c0-1.5-0.1-3,0.2-4.5s0.8-2.9,1.5-4.2c1.4-2.7,3.7-4.8,6.4-6.2      c-2.6,1.5-4.9,3.6-6.3,6.3c-0.7,1.3-1.2,2.7-1.4,4.2c-0.3,1.5-0.2,3-0.2,4.5v18C239.8,256.4,239.8,268.4,239.7,280.4z"/>
				<path fill="#E2E3E9" d="M223.4,260.7l6,19.1c0.3,1,1.3,1.7,2.4,1.7h15.8c1.1,0,2-0.7,2.4-1.7l6-19.1H223.4z"/>
				<path fill="#098C4A" d="M239.7,240.4c-0.1-3.4-0.1-6.8,0-10.2c0-3.4,0.1-6.8,0.2-10.2c0-1.7,0.1-3.4,0.1-5.1      c-0.1-1.7-0.4-3.4-1.1-4.9c-1.3-3.1-3.8-5.7-6.8-7.3c3,1.6,5.5,4.1,6.9,7.3c0.7,1.6,1.1,3.3,1.1,5s-0.1,3.4-0.1,5.1L239.7,240.4      z"/>
			</g>
			<path opacity="0.54" fill="#D1D1D3" enable-background="new    " d="M246.3,261.6c-3.6,0-8.5,2.6-9.6,5.1     c-1.6,3.7,1.6,7.7,0.4,9.5c-2.3,3.5-3.3,2.1-5.4,5.4c2.4,0,13.6,0.1,15.6,0.1c1.8-0.1,2.4-1,2.7-2.1c1.4-4.6,3.1-9.5,4.4-14     C253.4,265.2,249.8,261.6,246.3,261.6z"/>
		</g>
	</g>
</g>
<g id="Layer_6" display="none">
	<g display="inline">
		<path opacity="0.45" fill="#F2F2F2" enable-background="new    " d="M237.2,265.7c-10.8,1.5-14-1.8-25.9-2.9    c-16.8-1.4-31.2,3.4-37.2,5.4c-14.4,4.9-18.5,10-26.9,7.8c-4.4-1.1-9.2-4-14.3-1.9c-3.2,1.3-4.8,3.9-5.4,4.8    c-6.2,8.7-31.6,10.8-52.3,5.9c-8.2-1.9-36.5-8.5-52.3-35.4c-4.4-7.5-15.7-26.6-8.7-37.6c10.6-16.6,51.3,4.8,113.3,8.2    c95.4,5.3,157.6-27.1,164.8-10.7c2.3,5.3-11.7,9.9-25,34.6c-2.1,3.9-5,9.7-11.4,14.5C254.6,259.4,248.1,264.2,237.2,265.7z"/>
		<path opacity="0.45" fill="#F2F2F2" enable-background="new    " d="M237.7,243.1h-164c-40,0-72.4-32.4-72.4-72.4V41.1    c1.1-2.1,2.2-4.7,3.2-7.7c0.9-2.9,1.5-5.6,1.8-7.9c1.3-0.8,3.2-1.9,5.7-2.6c8.6-2.3,17,2.4,34.2,14.9c7.7,5.6,17.1,12.7,27.5,21.4    l0,0c3.4,4.2,12.5,14.3,27,16.8c3.2,0.5,8,1.4,13.6-0.3c12.2-3.6,12.9-14.4,22-20.7c17.8-12.3,50.3,5.5,61.1,11.4    c14.5,8,24.8,17.8,30,22.9c10,9.8,9.4,11.8,19.7,22.5c17.4,18.1,26.1,17.2,34.9,30.2c5.2,7.7,12.8,21.1,16.6,40.1l0,0    C298.7,215.8,271.4,243.1,237.7,243.1z"/>
		<path fill="#F2F2F2" d="M293.6,176.7c-4.2-18.5-6.3-27.8-11.5-34.7c-10.8-14.3-30.8-16.3-40.1-16.6l0,0c-8,0-14.6-6.5-14.6-14.6    V89.3c0-27.7-28.6-46.3-53.9-34.9l-41.2,18.5c-3.3,1.6-16.2,7.5-31.6,3c-2.6-0.7-14.8-4.5-22.9-16c-8.1-11.4-3-17.4-10.2-26.5    C59.1,22.7,43,19,30.2,21.7c-2.6,0.5-11.9,2.6-19.2,10.2c-16.5,17.1-5.5,44.2-6,93c-0.2,19.2-2,35.1-3.7,45.8    c0,15.3,4.7,29.5,12.8,41.1l0,0c-0.6,4.7,21.3,23.6,21.2,34.3c-0.1,5-3.5,6.3-3.7,9.9c-0.8,17.5,80.3,38.8,95.9,22.9    c1.3-1.4,7.4-7,16.7-13.1c0,0,3.3-1.7,6.6-3c12.9-5,29.8-2.9,60.4,0.1c8.5,0.8,13.7,1.2,19.3-1.6c6.7-3.4,6.9-8,13.6-12.3    c7.6-4.9,11.7-1.9,23-4.9c5.5-1.5,17.3-4.7,24.3-14.3c6.7-9.2,6.1-20.2,5.4-32.9C296.5,189.7,295.4,184.7,293.6,176.7z"/>
		<g>
			
				<rect x="-20" y="192.6" transform="matrix(0.5616 -0.8274 0.8274 0.5616 -134.3676 138.1718)" fill="#00C18D" width="166.4" height="6.6"/>
			
				<rect x="116.3" y="91.9" transform="matrix(0.5616 -0.8274 0.8274 0.5616 8.6826 206.7842)" fill="#00C18D" width="166.4" height="6.6"/>
			
				<rect x="127.7" y="114.2" transform="matrix(0.5616 -0.8274 0.8274 0.5616 -62.7082 172.0967)" fill="#00C18D" width="6.6" height="62.1"/>
			<polygon fill="#00C18D" points="253.5,34.6 235.8,22.6 252.5,17.1 252.5,17.1    "/>
		</g>
		<path fill="#21263A" d="M115.6,37.7c0,3.1-2.5,5.6-5.6,5.6s-5.6-2.5-5.6-5.6s2.5-12.4,5.6-12.4C116.9,25.3,115.6,34.6,115.6,37.7z    "/>
		<path fill="#323857" d="M69.6,254.8l-3.8,6.8c0,0-2,4.4,0.9,5c0,0,5.5,8.2,6.9-6.8c0.1-1.1,0.2-2,0.3-3c0-0.2-0.1-0.4-0.3-0.4    L69.6,254.8z"/>
		<path fill="#E2AF8D" d="M83.9,54.9c2.6,3,6.5,4.5,9.8,5c2.2,0.3,4.2,0.1,5.9-0.4c0.5-1.9,1.6-3.1,2.1-3.5    c-5.1-1.8-10.2-3.6-15.2-5.4C85.7,52.4,84.8,53.8,83.9,54.9z"/>
		<rect x="152.6" y="227.7" fill="#444444" width="33.5" height="26.8"/>
		<path fill="#444444" d="M192.7,259.1H146c-1.5,0-2.7-1.2-2.7-2.7l0,0c0-1.5,1.2-2.7,2.7-2.7h46.7c1.5,0,2.7,1.2,2.7,2.7l0,0    C195.4,257.9,194.2,259.1,192.7,259.1z"/>
		<path fill="#636363" d="M260.9,238.2H78.7c-3.1,0-5.6-2.5-5.6-5.6V123.4c0-3.1,2.5-5.6,5.6-5.6h182.2c3.1,0,5.6,2.5,5.6,5.6v109.2    C266.5,235.7,264,238.2,260.9,238.2z"/>
		<path fill="#444444" d="M77,232.4V123.1c0-0.9,0.7-1.6,1.6-1.6h182.3c0.9,0,1.6,0.7,1.6,1.6v109.3c0,0.9-0.7,1.6-1.6,1.6H78.6    C77.8,234,77,233.3,77,232.4z"/>
		<path fill="#DD5858" d="M169.8,176.6c-15.3,0-27.8,12.4-27.8,27.8s27.8,58.1,27.8,58.1s27.8-42.8,27.8-58.1    S185.1,176.6,169.8,176.6z M169.8,199.8c-3.3,0-6-2.7-6-6s2.7-6,6-6s6,2.7,6,6S173.1,199.8,169.8,199.8z"/>
		<g>
			<path fill="#00C18D" d="M207.7,219.8c0.3-1,0.9-1.1,0.8-1.8c0-1-1.2-1.6-1.2-1.6c-0.4-0.2-0.8-0.2-1.6-0.3     c-1.3-0.1-1.5,0-2.1-0.2c-0.4-0.2-0.5-0.3-1.3-0.9c-1.1-0.9-1.7-1.3-2.4-1.4c-0.7-0.2-1.3-0.1-1.7-0.1c-0.2,0-0.8,0.1-1.5,0.3     c-1.4,0.4-1.4,0.8-2.1,0.8c-1.1,0.1-1.3-0.8-2.4-0.9c-1.2-0.1-2.8,0.7-3.2,2.1c-0.6,1.7,0.7,3.5,2,4c0.9,0.4,1.5-0.1,2.5,0.5     c0.7,0.4,0.6,0.7,1.4,1.4c0.3,0.2,1.1,0.9,2.3,1.1c0.5,0.1,1.3,0,2.8-0.2c0.6-0.1,0.9-0.1,1.4,0c0.7,0.1,1.3,0.5,1.6,0.7     c0.7,0.5,0.7,0.7,1.2,0.9c0.7,0.3,1.5,0.1,1.8-0.1c0.4-0.1,1.3-0.4,1.8-1.3C208,221.7,207.3,221.1,207.7,219.8z"/>
			<path fill="#00C18D" d="M243.1,219.4c-0.3-1-0.9-1.1-0.8-1.8c0-1,1.2-1.6,1.2-1.6c0.4-0.2,0.8-0.2,1.6-0.4c1.3-0.2,1.5,0,2.1-0.3     c0.4-0.2,0.5-0.3,1.3-0.9c1.1-0.9,1.7-1.3,2.4-1.5s1.3-0.1,1.7-0.1c0.2,0,0.8,0.1,1.5,0.3c1.4,0.4,1.4,0.8,2.1,0.8     c1.1,0.1,1.3-0.8,2.4-0.9c1.2-0.1,2.8,0.7,3.2,2.1c0.6,1.7-0.7,3.5-1.9,4c-0.9,0.4-1.5-0.1-2.5,0.5c-0.7,0.4-0.6,0.7-1.4,1.4     c-0.3,0.2-1.1,0.9-2.3,1.1c-0.5,0.1-1.3,0-2.8-0.2c-0.6-0.1-0.9-0.1-1.4,0c-0.7,0.1-1.3,0.5-1.6,0.7c-0.7,0.5-0.7,0.7-1.2,0.9     c-0.7,0.3-1.5,0.1-1.8-0.1c-0.4-0.1-1.3-0.4-1.8-1.3C242.8,221.3,243.5,220.7,243.1,219.4z"/>
			<path fill="#139973" d="M225.9,234.5l-0.2-0.1c3.6-5.2,9.5-12.1,17.4-15c0.3-0.1,0.6-0.2,0.9-0.3c1.3-0.5,2.1-0.8,5.1-1.4     c1.2-0.2,2.2-0.5,3.1-0.6c2-0.4,3.4-0.7,5.1-0.8v0.2c-1.7,0.1-3.1,0.4-5.1,0.8c-0.9,0.2-1.9,0.4-3.1,0.6c-2.9,0.6-3.8,0.9-5,1.4     c-0.3,0.1-0.6,0.2-0.9,0.3C235.3,222.4,229.5,229.3,225.9,234.5z"/>
			<path fill="#139973" d="M225.7,233.7c-6-7.5-12.1-12.1-18.1-13.7c-1.4-0.4-6-1.4-7.9-1.8c-1.4-0.3-2.2-0.5-2.8-0.6     c-1.2-0.3-1.2-0.3-2.5-0.5l-0.5-0.1l0.1-0.2l0.5,0.1c1.3,0.3,1.3,0.3,2.5,0.5c0.6,0.1,1.4,0.3,2.8,0.6c1.9,0.4,6.5,1.5,7.9,1.9     c6,1.6,12.1,6.2,18.2,13.8H225.7z"/>
			<rect x="225.7" y="204.9" fill="#139973" width="0.2" height="44.1"/>
			<path fill="#AA6929" d="M205.6,243.2l7.6,24.2c0.3,1,1.3,1.7,2.4,1.7h20.5c1.1,0,2-0.7,2.4-1.7l7.6-24.1L205.6,243.2z"/>
			<polygon fill="#6B411A" points="204.9,241 206,244.5 245.6,244.5 246.7,241    "/>
			<path fill="#AA6929" d="M204.6,240v3c0,0.3,0.2,0.5,0.6,0.5h41.3c0.3,0,0.6-0.2,0.6-0.6v-3c0-0.3-0.2-0.6-0.6-0.6h-41.3     C204.9,239.5,204.6,239.7,204.6,240z"/>
			<g>
				<circle fill="#FAC311" cx="226.1" cy="200.6" r="10.8"/>
				<circle fill="#F9AD15" cx="226.1" cy="200.6" r="9"/>
				<g>
					<path fill="#E29814" d="M226.5,191.7c2.5,0,4.7,1,6.4,2.6c-1.7-1.8-4.1-2.9-6.8-2.9c-5.1,0-9.3,4.2-9.3,9.3       c0,2.7,1.1,5.1,2.9,6.8c-1.6-1.7-2.6-3.9-2.6-6.4C217.2,195.8,221.3,191.7,226.5,191.7z"/>
					<path fill="#E29814" d="M232.6,193.9c1.6,1.7,2.6,3.9,2.6,6.4c0,5.1-4.2,9.3-9.3,9.3c-2.5,0-4.7-1-6.4-2.6       c1.7,1.8,4.1,2.9,6.8,2.9c5.1,0,9.3-4.2,9.3-9.3C235.5,198,234.3,195.6,232.6,193.9z"/>
				</g>
				<g>
					<path fill="#FAC311" d="M226.5,204.4l-0.1,1.6c0,0.2-0.1,0.4-0.1,0.4c-0.1,0.1-0.2,0.1-0.4,0.1s-0.3,0-0.3-0.1       c-0.1-0.1-0.1-0.2-0.1-0.4l0,0l0.1-1.5c-0.2,0-0.4-0.1-0.5-0.2c-0.2-0.1-0.3-0.2-0.5-0.3c-0.1,0.1-0.1,0.2-0.2,0.2       c-0.1,0.1-0.2,0.1-0.3,0.1c-0.2,0-0.3-0.1-0.4-0.2c-0.1-0.1-0.2-0.3-0.2-0.5v-1c0-0.2,0.1-0.3,0.2-0.4c0.1-0.1,0.2-0.2,0.4-0.2       c0.3,0,0.5,0.2,0.6,0.5c0,0.1,0.1,0.2,0.1,0.2c0.1,0.2,0.3,0.3,0.7,0.5c0.4,0.1,0.7,0.2,1.1,0.2c0.4,0,0.8-0.1,1-0.3       c0.3-0.2,0.4-0.5,0.4-0.8s-0.1-0.5-0.3-0.7s-0.6-0.4-1.2-0.6l-1.2-0.4c-0.5-0.2-0.8-0.4-1.1-0.8c-0.3-0.4-0.4-0.8-0.4-1.2       c0-0.6,0.2-1.1,0.6-1.4c0.4-0.4,1-0.6,1.7-0.6v-0.5c0-0.2,0.1-0.3,0.2-0.4c0.1-0.1,0.2-0.1,0.4-0.1s0.3,0,0.4,0.1       c0.1,0.1,0.1,0.2,0.1,0.4v0.1v0.5c0.2,0,0.3,0.1,0.5,0.2c0.2,0.1,0.3,0.1,0.5,0.2c0.1-0.1,0.1-0.1,0.2-0.2       c0.1,0,0.1-0.1,0.2-0.1c0.2,0,0.3,0,0.3,0.1c0.1,0.1,0.1,0.2,0.1,0.4v0.8c0,0.2,0,0.3-0.1,0.4c-0.1,0.1-0.2,0.1-0.4,0.1       s-0.4-0.1-0.5-0.4c0-0.1-0.1-0.1-0.1-0.2c-0.1-0.2-0.3-0.3-0.5-0.4c-0.2-0.1-0.5-0.2-0.9-0.2c-0.5,0-0.8,0.1-1.1,0.3       s-0.4,0.5-0.4,0.8s0.1,0.5,0.3,0.7s0.4,0.3,0.8,0.4l1.3,0.4c0.7,0.2,1.2,0.5,1.5,0.8s0.5,0.8,0.5,1.3c0,0.6-0.2,1.1-0.7,1.5       C227.9,204.2,227.3,204.4,226.5,204.4z"/>
				</g>
			</g>
		</g>
		<g>
			<path fill="#FAC311" d="M261.5,269.8h-14c-0.3,0-0.5-0.2-0.5-0.5v-2.2c0-0.3,0.2-0.5,0.5-0.5h14c0.3,0,0.5,0.2,0.5,0.5v2.2     C262,269.6,261.8,269.8,261.5,269.8z"/>
			<rect x="247.9" y="266.7" fill="#E29814" width="0.2" height="3.2"/>
			<rect x="248.6" y="266.7" fill="#E29814" width="0.2" height="3.2"/>
			<rect x="249.3" y="266.7" fill="#E29814" width="0.2" height="3.2"/>
			<rect x="250" y="266.7" fill="#E29814" width="0.2" height="3.2"/>
			<rect x="250.7" y="266.7" fill="#E29814" width="0.2" height="3.2"/>
			<rect x="251.4" y="266.7" fill="#E29814" width="0.2" height="3.2"/>
			<rect x="252.1" y="266.7" fill="#E29814" width="0.2" height="3.2"/>
			<rect x="252.8" y="266.7" fill="#E29814" width="0.2" height="3.2"/>
			<rect x="253.5" y="266.7" fill="#E29814" width="0.2" height="3.2"/>
			<rect x="254.2" y="266.7" fill="#E29814" width="0.2" height="3.2"/>
			<rect x="254.9" y="266.7" fill="#E29814" width="0.2" height="3.2"/>
			<rect x="255.6" y="266.7" fill="#E29814" width="0.2" height="3.2"/>
			<rect x="256.3" y="266.7" fill="#E29814" width="0.2" height="3.2"/>
			<rect x="257" y="266.7" fill="#E29814" width="0.2" height="3.2"/>
			<rect x="257.7" y="266.7" fill="#E29814" width="0.2" height="3.2"/>
			<rect x="258.4" y="266.7" fill="#E29814" width="0.2" height="3.2"/>
			<rect x="259.1" y="266.7" fill="#E29814" width="0.2" height="3.2"/>
			<rect x="259.8" y="266.7" fill="#E29814" width="0.2" height="3.2"/>
			<rect x="260.5" y="266.7" fill="#E29814" width="0.2" height="3.2"/>
			<rect x="261.2" y="266.7" fill="#E29814" width="0.2" height="3.2"/>
		</g>
		<path fill="#21263A" d="M87,51.3c-0.9,3-6.4,10.4-9.5,10.4s-22.8,8.6-22.8,5.5s29.5-39.6,32.6-39.6C94.2,27.7,87.9,48.3,87,51.3z"/>
		<path fill="#E2AF8D" d="M106.7,88c0,0,5.1,22,6.2,25.3c1.2,3.3,8.7,1.9,11,1.6c3.7-0.6,20.4-0.4,25.7-0.3c1.1,0,4.1-0.1,4.9-0.8    l1.9-2.4c0.8-0.9,0.1-2.3-1.1-2.2c-3.6,0.2-9.2,1-10.2,0.8l-25.4-3.9L115.8,91L106.7,88z"/>
		<path fill="#EFC0A0" d="M87.7,247.1c0,0,0,5.5,0,7.3c0,1.7-0.2,3.4,6,3.2c4.8-0.1,11.2,0.7,13.2,0.7s3.5-2.3,2.1-3    c-3.3-1.6-11.7-2.1-12.3-2.5c0,0-3.6-1.4-3.3-6.8L87.7,247.1z"/>
		<path fill="#EFC0A0" d="M68.1,252.8v3.9l-3.1,6.9c0,0-2,4.4,0.9,5c0,0,6.6,2.6,7-4.6s2-13.1,2-13.1L68.1,252.8z"/>
		<path fill="#A0B5C7" d="M57.9,136.8c0,0-0.3,5.3-0.1,11.4c0.5,14,6.1,88.5,8.1,98.2l1.5,7.7H76l6-87c0,0,3.2,78.4,5.4,81.6    c0,0,9,1.8,9.9-1c0.8-2.9,9.7-93.9,6.7-107.1S57.9,136.8,57.9,136.8z"/>
		<path fill="#62D5E6" d="M59.9,89l-0.3-17.7c0,0,0.1-10.6,11.5-11.5s30.4,4.8,30.4,4.8s10.7,0.7,12.8,11.2    c2,10.5,2.6,18.4,2.6,18.4s-9.5-0.8-9.7,0.7c-2.3,13.2-8.4,14.4-6.7,20.1c1.4,4.6,2.1,19.9,3.8,25.7c1.7,5.8-46.1,3.6-46.2-2.8    c-0.1-6.4,7.7-11.4,9.4-17.2c1.7-5.8,7.2-15,6.6-25C74,95.4,69.4,87.3,59.9,89z"/>
		<path fill="#55C9C6" d="M75.6,82c0,0,0.1,14.5-2.6,21.7L66.7,122l5.9,1.1c0,0,28.9,1.7,29.2,0.3c0.1-0.5-0.5-3-0.4-3.7    c0.7-3.6-3.3-4.8,0-11.8c0.1-0.2-7.5-1.6-10.1-1.7c-2.9-0.1-5.9,1.5-11.6,0.5c-3.4-0.6-4-4.7-4-5.5C76.1,95.3,79.5,86.1,75.6,82z"/>
		<path fill="#EFC0A0" d="M77.7,59.9c2.6-1,5.9-3.3,8.8-9.3c5.1,1.8,10.2,3.6,15.2,5.4c-0.5,0.5-1.8,1.8-2.2,4    c-0.5,2.5,0.4,4.5,0.7,5.1c1.2,4.7-1.7,9.4-6,10.4c-4.2,1-8.2-3.6-9.6-5.1c-1.2-1.3-2.1-3.3-3.3-5.7    C80.6,63.3,78.1,60.8,77.7,59.9z"/>
		<path fill="#EFC0A0" d="M112.2,31.4c5.6,6.3,1.8,18.1-4.9,23.4c-1.1,0.9-5.9,4.4-12.2,3.6C90.7,57.8,85,55.1,83,49.6    c-2.5-6.8,2.3-13.6,5.8-16.7C95.1,27.3,106.7,25.2,112.2,31.4z"/>
		<path fill="#303655" d="M113.8,27.9c2.1-3.3,1.7-8.2-0.4-11.2c-2.7-3.7-7.7-4-11.2-4.1c-8-0.4-14.1,3.3-16.2,4.7    c-8,5.3-6.3,9.7-12.6,14.9c-9.9,8.2-18.6,0.8-31.7,8.9c-2.6,1.6-11.7,7.2-12.9,16.8C27.6,67.3,34.2,78.6,43,80    c6.5,1,12.2-3.6,13-4.2c4-3.3,2.9-5.3,7.5-10c2.2-2.2,2.6-1.9,11.2-7.9c4.9-3.4,7.3-5.1,8.3-6.3c4.9-5.9,1.6-10.3,5-14.9    C93.9,28.7,108.8,35.7,113.8,27.9z"/>
		<path fill="#EFC0A0" d="M59.9,89l7.8,20.5c0,0,4.8,3.1,14.3,1.9c12.3-1.6,18.4-1.7,34-9.4c0,0,2.3-1,4.1-0.9c0.6,0,2.7-0.3,5.2-1    c3.5-1,2.3-6.2-1.3-5.5c-1.4,0.3-2.6,0.6-3.2,0.7c-3.1,0.8-4.9,1.3-5.9,1.4c-1,0.2-6.3-0.2-19,2.2c-13,2.4-17.6,3.3-17.6,3.3    s1.8-2-2.3-15C75.9,87.2,72.6,84.1,59.9,89z"/>
		<path fill="#894820" d="M65.8,261.6l-0.8,2c0,0-0.9,2-0.7,3.8c0.1,1.1,0.7,3.4,2.2,3.7c0,0,3.3-0.8,5.3-3.8    c0.2-0.3,0.6-1.1,0.8-1.9c0.5-2.3,0.3-1.7,0.5-3.7C70.7,261.6,68.1,261.3,65.8,261.6z"/>
		<path fill="#894820" d="M109,255.2c-2.5-1.2-3.5-1.2-6.2-1.6c0.3,0.9-2.1,2.4-2.3,3c-3.2,0.2-11.1-2.3-12.8-2.3    c0,0.6,0,1.3,0.3,1.8c0.2,0.3,0.5,0.6,1.1,0.9s1.3,0.4,2.4,0.5c0.6,0,1.4,0.1,2.3,0c4.8-0.1,11.2,0.7,13.2,0.7    C109,258.3,113.8,257.3,109,255.2z"/>
		<path fill="#424242" d="M145.6,111.7V97.9c0-0.6,0.5-1,1-1h6.9c0.6,0,1,0.5,1,1v13.9c0,0.6-0.5,1-1,1h-6.9    C146,112.7,145.6,112.3,145.6,111.7z"/>
		<path fill="#282828" d="M146.7,97.7h6.6c0.3,0,0.5,0.2,0.5,0.5v12.7c0,0.3-0.2,0.5-0.5,0.5h-6.6c-0.3,0-0.5-0.2-0.5-0.5V98.2    C146.2,97.9,146.4,97.7,146.7,97.7z"/>
		<path fill="#E2AF8D" d="M142.7,110.2c0,0,1.7-2.3,2.5-2.3s2.7,0,2.7,0s1.2,0.8,0,1.2s-2,0.5-2.3,1.2    C145.2,110.8,142.7,110.2,142.7,110.2z"/>
	</g>
</g>
<g id="Layer_7" display="none">
	<g display="inline">
		<path opacity="0.45" fill="#F2F2F2" enable-background="new    " d="M293.2,176.2c-3.8-13.3-13.1-12.2-17.9-27.8    c-5.5-17.8,5.2-25,1.5-38.8c-3.6-13.5-15.7-14.6-64.3-39.3c-35.7-18.1-47-26.5-62.2-21.9c-5.6,1.7-15.6,6.3-24.4,11.5    c-13.6,7.9-16.7,12.7-23.9,13.2c-6.1,0.5-15-2.2-26.6-16.5l0,0C60.5,38.4,38.3,28,14.8,28C8.9,28,4.1,32.8,4.1,38.7v127.8    c2,7.4,2.7,14,2.7,19.6c0.1,7.8-1.1,10.1-0.4,16.8c1,10.1,4.8,17.5,5.6,18.9c3.5,6.4,8.5,10.8,18.4,19.4    c8.2,7.1,14.8,12,15.8,12.8c21.3,15.7,31.9,23.6,41.3,26.5c6,1.9,23.4,7.2,37.5-1c6.7-3.9,5.2-6.5,12.1-11.7    c16.1-12.1,38.9-9.1,49.6-7.8c10.5,1.3,14.4,3.5,26.2,3.5c8,0,8.2-1.9,18.9-1.7c15.9,0.2,24.8,3.5,30.7-2.4    c4.8-4.8,2.8-11,3.6-20.7C268.8,205.4,297.8,192.3,293.2,176.2z"/>
		<path fill="#F2F2F2" d="M293.2,176.2c-6.3-14.4-18.7-11.5-26.9-27.9c-8.4-16.8,2.1-24.6-3.3-44.6c-7-25.4-32.3-42.7-53.3-49.2    c-16.1-5-29.9-3.6-35.9-2.7C153,54.9,139,65.2,133.1,70.1c-2,1.1-15.4,8.5-31.2,3C88.1,68.3,82,57,80.8,54.5    c-4.8-5.6-12.7-13.2-24.5-18c-6.9-2.9-15-6.2-24.7-3.7c-8.6,2.2-14.2,8-15.8,9.7c-0.2,0.3-4.4,4.8-7,11C1.7,70.3,7.2,98.3,9,112.8    c1.5,12.4,2.3,30-1.7,52c-0.8,2.5-1.8,6.4-1.6,11.1c0.1,2.8,0.7,6.2,3.5,13c2,4.7,5.1,11.2,10.1,18.4c8.9,7.9,19.4,19.8,18.3,33.5    c-0.5,6.9-3.5,8.3-2.9,12.9c2.4,18.8,57.1,39.1,93.7,19.4c8.1-4.3,13.5-9.7,16.5-12.9c0,0,3.2-1.7,6.5-3    c26.3-10.2,55.4-1.3,59.6,0.1c7.9,2.5,12.7,5.2,20.8,4.5c2.8-0.2,13.1-1.1,16.9-7.9c3.1-5.6-0.7-10.6,2.5-14.1    c3.3-3.6,9.4-1.1,14.9-1.1C280.2,238.6,304,200.9,293.2,176.2z"/>
		<path fill="#FFFFFF" d="M246.6,240.4H45.2c-1.8,0-3.2-1.4-3.2-3.2V88c0-1.8,1.4-3.2,3.2-3.2h201.5c1.8,0,3.2,1.4,3.2,3.2v149.1    C249.8,238.9,248.4,240.4,246.6,240.4z"/>
		<path fill="#FF5748" d="M124.7,148.9h-31c-1.8,0-3.2-1.4-3.2-3.2v-31.1c0-1.8,1.4-3.2,3.2-3.2h31.1c1.8,0,3.2,1.4,3.2,3.2v31.1    C127.9,147.4,126.5,148.9,124.7,148.9z"/>
		<path fill="#00E782" d="M171.4,148.9h-31.1c-1.8,0-3.2-1.4-3.2-3.2v-31.1c0-1.8,1.4-3.2,3.2-3.2h31.1c1.8,0,3.2,1.4,3.2,3.2v31.1    C174.6,147.4,173.1,148.9,171.4,148.9z"/>
		<path fill="#1536FB" d="M218,148.9h-31.1c-1.8,0-3.2-1.4-3.2-3.2v-31.1c0-1.8,1.4-3.2,3.2-3.2H218c1.8,0,3.2,1.4,3.2,3.2v31.1    C221.2,147.4,219.7,148.9,218,148.9z"/>
		<path fill="#FFD300" d="M124.7,196.9h-31c-1.8,0-3.2-1.4-3.2-3.2v-31.1c0-1.8,1.4-3.2,3.2-3.2h31.1c1.8,0,3.2,1.4,3.2,3.2v31.1    C127.9,195.4,126.5,196.9,124.7,196.9z"/>
		<path fill="#E5E5E5" d="M218,231.1H93.7c-1.8,0-3.2-1.4-3.2-3.2v-21c0-1.8,1.4-3.2,3.2-3.2H218c1.8,0,3.2,1.4,3.2,3.2v21    C221.2,229.6,219.7,231.1,218,231.1z"/>
		<path fill="#C4C3C9" d="M249.8,96.9H42V88c0-1.8,1.4-3.2,3.2-3.2h201.5c1.8,0,3.2,1.4,3.2,3.2L249.8,96.9L249.8,96.9z"/>
		<path fill="#EFC0A0" d="M89.9,79.7l-19,20.3c0,0-6.4,11.2,8.5,10.9c1.4,0,2.5-0.9,4.1-2.7L106.4,85L89.9,79.7z"/>
		<path opacity="0.13" fill="#232323" enable-background="new    " d="M113.8,77.3L113.8,77.3c-3.9-2.7-6-7.2-5.6-11.9l0.6-7.4    c0.1-1-1.1-1.6-1.8-1c-4.8,3.7-8.1,9.3-8.6,15.9c-0.4,4.8,0.8,9.4,3,13.2c5.9,9.9,8.8,21.4,7.9,32.9l-6.1,80.5    c-0.9,10.6-4.9,20.5-11.2,29c-2.1,2.8-3.4,6.2-3.7,9.9c-0.5,5.5,1.4,10.7,4.9,14.5c0.7,0.7,1.9,0.3,2-0.7l0.5-6    c0.3-4,2.8-7.6,6.5-9.3l0,0c3.7-1.7,8-1.4,11.3,0.9l0,0c3.3,2.3,5.2,6.2,4.8,10.3l-0.5,6c-0.1,1,1.1,1.6,1.9,1    c4-3.2,6.7-8,7.2-13.5c0.3-3.7,1.2-7.5-0.4-10.6c-4.8-9.4-7.2-19.9-6.3-30.5l6.1-80.5c1-11.5,5.7-22.3,13.2-31.1    c0.5-0.6,2.4-3.5,2.5-4.1c-0.2,0-0.7,0-1.3,0c1.4-2.6,2-5.1,2.3-8.2c0.5-6.5-1.8-12.6-5.9-17.1c-0.7-0.7-1.9-0.3-2,0.7l-0.6,7.4    c-0.4,4.7-3.2,8.8-7.5,10.8l0,0C122.7,80.4,117.7,80,113.8,77.3z"/>
		<path fill="#B7B7B7" d="M113.8,77.3L113.8,77.3c-3.9-2.7-6-7.2-5.6-11.9l0.6-7.4c0.1-1-1.1-1.6-1.8-1c-4.8,3.7-8.1,9.3-8.6,15.9    c-0.4,4.8,0.8,9.4,3,13.2c5.9,9.9,8.8,21.4,7.9,32.9l-6.1,80.5c-0.9,10.6-4.9,20.5-11.2,29c-2.1,2.8-3.4,6.2-3.7,9.9    c-0.5,5.5,1.4,10.7,4.9,14.5c0.7,0.7,1.9,0.3,2-0.7l0.5-6c0.3-4,2.8-7.6,6.5-9.3l0,0c3.7-1.7,8-1.4,11.3,0.9l0,0    c3.3,2.3,5.2,6.2,4.8,10.3l-0.5,6c-0.1,1,1.1,1.6,1.9,1c4-3.2,6.7-8,7.2-13.5c0.3-3.7-0.5-7.3-2-10.4c-4.8-9.4-7.2-19.9-6.3-30.5    l6.1-80.5c1-11.5,5.7-22.3,13.2-31.1c2.9-3.4,4.8-7.7,5.2-12.6c0.5-6.5-1.8-12.6-5.9-17.1c-0.7-0.7-1.9-0.3-2,0.7l-0.6,7.4    c-0.4,4.7-3.2,8.8-7.5,10.8l0,0C122.7,80.4,117.7,80,113.8,77.3z"/>
		<g>
			<path fill="#ADADAD" d="M107,57.1c0.5-0.4,1.6-0.1,1.8,0.8l0.3-3.1c0.3-1.4-1.3-2.2-2.1-1.6c-4.8,3.7-8.1,9.3-8.6,15.9     c-0.1,1.3-0.1,2.6,0,3.8C99,66.4,102.2,60.8,107,57.1z"/>
			<path fill="#ADADAD" d="M108.2,65.5c-0.4,4.7,1.7,9.2,5.6,11.9c3.9,2.7,8.8,3.1,13.1,1.1c4.2-2,7.1-6.1,7.5-10.8l0.6-7.4     c0.1-1,1.3-1.4,2-0.7c3.3,3.6,5.4,8.2,5.9,13.2v-0.1c0.5-6.5-1.8-12.6-5.9-17.1c-0.7-0.7-1.9-0.3-2,0.7l-0.6,7.4     c-0.4,4.7-3.2,8.8-7.5,10.8l0,0c-4.2,2-9.2,1.6-13.1-1.1l0,0c-3-2.1-5-5.4-5.5-9L108.2,65.5z"/>
		</g>
		<path fill="#EFC0A0" d="M85.3,100.3l3.1,17.5c0.7,3.6,3.1,6.8,6.5,8.2c3,1.3,6.5,1.2,8.2-4.5c1.2-4-0.7-11.4-1.2-13.8L99.4,90    L85.3,100.3z"/>
		<path opacity="0.13" fill="#232323" enable-background="new    " d="M108.5,128.5c1.9-0.8,4-2,6.1-3.9c4.3-3.6,7.7-6.6,10.5-9    c1.1-4.8,4.6-21.6,3.7-18.5l-1.6,5.8L109.5,113"/>
		<path fill="#EFC0A0" d="M90.5,122.5c0,0,8.3,9.5,21.7,0.3s19.6-14.1,19.6-14.1l6-8.2l0,0c2.2-4.1,2.7-6.5-1.3-8.3l0,0    c-3.2-0.4-6.3,1.5-7.5,4.5l-2.2,5.7l-24.1,9.1"/>
		<path fill="#EFC0A0" d="M62.6,25.7c10.5-3.2,22.4,7.7,25.1,18.5c0.5,1.9,2.1,9.4-2.4,16.5c-3.1,5-9.4,10.2-17,9.6    c-9.5-0.7-14.9-10.1-16.7-16C48.5,43.8,52.3,28.8,62.6,25.7z"/>
		<path fill="#894820" d="M81,255.4h-2.2c-1.7,0-3.6,1.4-4.2,3.1l0,0c-1.2,0.4-2,1.6-2,2.9v3.5c0,0.2,0,0.4,0,0.6v1.3    c0,1.7,1.4,3.1,3.1,3.1h2.2c0.7,0,1.3-0.2,1.8-0.6c1.2-0.7,2.4-2,2.8-3.1l1.7-7.2C84.8,257.4,82.7,255.4,81,255.4z"/>
		<path fill="#894820" d="M57.8,255.4h-2.2c-1.7,0-3.6,1.4-4.2,3.1l0,0c-1.2,0.4-2,1.6-2,2.9v3.5c0,0.2,0,0.4,0,0.6v1.3    c0,1.7,1.4,3.1,3.1,3.1h2.2c0.7,0,1.3-0.2,1.8-0.6c1.2-0.7,2.4-2,2.8-3.1L61,259C61.6,257.4,59.5,255.4,57.8,255.4z"/>
		<path fill="#1536FB" d="M99.1,100.2c1.3-0.6,2-2,1.9-3.4c-1.1-9.2-3.8-21.6-10.9-28c-2.7-2.5-7.8-3.5-11.2-4    c0,0-10.2,2.2-16.8-1.8c-6.6-3.9-20.2,4.4-21.2,9.2c-6.3,28.8,3.1,65.2,1,79.6h37.5c3.2,0,7,3.7,6.7,0.5c-2-22.5-0.5-50-2-53.4    c-0.3-0.7,1.7,4.1,2.7,7.5L99.1,100.2z"/>
		<path fill="#323857" d="M57.3,64.4c-5.2-2.3-7.8-6.6-9.4-9.3c-4.5-7.6-5.6-17.8-2.4-19.6c1.5-0.9,2.9,0.5,4.6-0.7    c1.8-1.2,1.7-3.4,2.6-6.4c1-3.6,2.9-6.7,4.2-8.1c5.3-5.6,16.2-5.4,22.9-1.1c2.9,1.9,4.6,4.2,5.3,5.2l0,0c0,0,2.1,4.2,2.8,9.3    C90.1,50.5,81.1,59,81.1,59C75.4,64.7,65.5,68.1,57.3,64.4z"/>
		<path fill="#24374E" d="M85.6,158.4c0.1-5.8,1.3-15.1,1-18.3c-2-22.5-0.7-35.1-2.1-38.5c-0.3-0.6-4.1-25.2-5.4-34.3    C79,66,77.7,65,76.4,65.2c-0.3,0-0.6,0.1-0.9,0.1c-2,0.2-2.7,20.3-5.5,20.4c-2.1,0.1-14.4,0.5-16.3-0.7c-1.8-1.1,1-22-1.1-21.7    c-0.7,0.1-1.4,0.2-2.1,0.4c-4.8,1.3-8.3,30.4-8.8,33.5c-3.6,22.6-1.5,48.3-1.1,57.9c0,1,0,2.2,0,3.4l0,0l0,0c0,0.6,0,1.2,0.1,1.8    c0.5,13.8,7.9,103.4,7.9,103.4s3,1.4,5.8,1.4c1.3,0,2.3-0.2,3.1-0.3c0.8-0.2,1.4-0.9,1.5-1.8l5.6-88.2c0,0,4.7,77.1,7,87.4    c0.1,0.6,0.7,1.1,1.3,1.2c2.3,0.4,8.1,1.1,8.8-1.2C82.5,259.9,86.3,188,85.6,158.4L85.6,158.4z"/>
		<path fill="#C4C3C9" d="M174.7,170.3c-0.1,0-0.2,0-0.3-0.1l-4.6-4.6l4.6-4.6c0.2-0.2,0.5-0.2,0.7,0s0.2,0.5,0,0.7l-3.9,3.9    l3.9,3.9c0.2,0.2,0.2,0.5,0,0.7C174.9,170.3,174.8,170.3,174.7,170.3z"/>
		<path fill="#C4C3C9" d="M182.9,170.3c-0.1,0-0.2,0-0.3-0.1c-0.2-0.2-0.2-0.5,0-0.7l3.9-3.9l-3.9-3.9c-0.2-0.2-0.2-0.5,0-0.7    s0.5-0.2,0.7,0l4.6,4.6l-4.6,4.6C183.1,170.3,183,170.3,182.9,170.3z"/>
		<path fill="#C4C3C9" d="M177.8,170.3h-0.1c-0.3-0.1-0.4-0.3-0.3-0.6l2.5-8.4c0.1-0.3,0.3-0.4,0.6-0.3c0.3,0.1,0.4,0.3,0.3,0.6    l-2.5,8.4C178.2,170.2,178,170.3,177.8,170.3z"/>
		<path fill="#C4C3C9" d="M217.8,179.9h-77.5c-0.3,0-0.5-0.2-0.5-0.5s0.2-0.5,0.5-0.5h77.5c0.3,0,0.5,0.2,0.5,0.5    S218.1,179.9,217.8,179.9z"/>
		<path fill="#C4C3C9" d="M217.8,184.8h-77.5c-0.3,0-0.5-0.2-0.5-0.5s0.2-0.5,0.5-0.5h77.5c0.3,0,0.5,0.2,0.5,0.5    S218.1,184.8,217.8,184.8z"/>
		<path fill="#C4C3C9" d="M217.8,189.6h-77.5c-0.3,0-0.5-0.2-0.5-0.5s0.2-0.5,0.5-0.5h77.5c0.3,0,0.5,0.2,0.5,0.5    S218.1,189.6,217.8,189.6z"/>
		<path fill="#C4C3C9" d="M217.8,194.5h-77.5c-0.3,0-0.5-0.2-0.5-0.5s0.2-0.5,0.5-0.5h77.5c0.3,0,0.5,0.2,0.5,0.5    S218.1,194.5,217.8,194.5z"/>
		<g>
			<g>
				<path fill="#00E782" d="M250.5,223c3.6,0.2,4.4,1.9,6.7,1.2c3.2-1,4.3-5.2,4.4-5.5c0.3-1.4,0.2-2.8-0.2-5.7      c-0.6-4.3-1.2-5-0.9-7.1c0.2-1.6,0.6-1.9,1.9-5c1.9-4.5,2.8-6.8,2.8-9.4c0-2.4-0.6-4.4-1.1-5.8c-0.2-0.7-0.8-2.5-2.1-4.8      c-2.4-4.3-3.8-4.1-4.6-6.4c-1.2-3.5,1.6-5.1,1-8.9c-0.6-4.1-4.7-8.7-9.7-9.1c-6.1-0.5-11.3,5.3-11.9,9.9      c-0.4,3.3,1.6,4.9,0.5,8.6c-0.8,2.7-2,2.6-3.5,6c-0.6,1.2-2,4.6-1.7,8.7c0.1,1.7,1.1,4.3,2.9,9.3c0.8,2.1,1.2,3,1.3,4.6      c0.2,2.6-0.6,4.8-0.9,5.9c-1,2.8-1.8,2.8-2,4.6c-0.4,2.7,1.1,5,1.8,6c0.7,1.1,2.6,4.1,5.8,4.8      C244.6,225.8,245.8,222.8,250.5,223z"/>
				<path fill="#098C4A" d="M248.1,268.4c-0.1-12-0.1-24-0.1-35.9v-18c0-1.5-0.1-3,0.2-4.5s0.8-2.9,1.5-4.2c1.4-2.6,3.7-4.8,6.4-6.2      c-2.6,1.5-4.9,3.6-6.3,6.3c-0.7,1.3-1.2,2.7-1.4,4.2c-0.3,1.5-0.2,3-0.2,4.5v18C248.2,244.5,248.2,256.5,248.1,268.4z"/>
				<path fill="#E2E3E9" d="M231.9,248.8l6,19.1c0.3,1,1.3,1.7,2.4,1.7H256c1.1,0,2-0.7,2.4-1.7l6-19.1L231.9,248.8z"/>
				<path fill="#098C4A" d="M248.1,228.6c-0.1-3.4-0.1-6.8,0-10.2c0-3.4,0.1-6.8,0.2-10.2c0-1.7,0.1-3.4,0.1-5.1      c-0.1-1.7-0.4-3.4-1.1-4.9c-1.3-3.1-3.8-5.7-6.8-7.3c3,1.6,5.5,4.1,6.9,7.3c0.7,1.6,1.1,3.3,1.1,5s-0.1,3.4-0.1,5.1L248.1,228.6      z"/>
			</g>
			<path opacity="0.54" fill="#D1D1D3" enable-background="new    " d="M254.7,249.7c-3.6,0-8.5,2.6-9.6,5.1     c-1.6,3.6,1.6,7.7,0.4,9.5c-2.3,3.5-3.3,2.1-5.4,5.4c2.4,0,13.6,0.1,15.6,0.1c1.8-0.1,2.4-1,2.7-2.1c1.4-4.6,3.1-9.5,4.4-13.9     C261.8,253.3,258.3,249.7,254.7,249.7z"/>
		</g>
		<path fill="#0E36E0" d="M91.6,103.9c2.8-2.7-3.9-5.4-4.9-9.3c-1.4-5.6,0.9-4.7-0.9-12.2c-1-4.2-2.4-5.3-3.8-7.3    c-1.1-1.6-1.8-2.8-2.4-4.4c-0.1-0.2,4.5,27.8,4.4,28.2c-0.4,0.7,1.7,4.1,2.7,7.5L91.6,103.9z"/>
		<path opacity="0.3" fill="#18242D" enable-background="new    " d="M57.3,64.4c-3.1-1.4-1.4-6.7-1.3-6.9c2-8.3,14.2-6.8,20.2-15.9    S77,20.1,80,19.3c1-0.3,2.6,0.9,5.3,5.2l0,0c0,0,2.1,4.2,2.8,9.3c2.2,16.8-6.8,25.3-6.8,25.3C75.4,64.7,65.5,68.1,57.3,64.4z"/>
		<path fill="#1B2939" d="M59,263.4l5.6-88c0,0-0.9,3.7-2.3,11.8c-1.4,8.2-2.3,20.3-2.7,26.2c-0.4,6.1-2.7,27.1-2.5,36.1    c0.1,3.5-1.6,11.1-1.3,13.1C56.4,267.3,59,263.4,59,263.4z"/>
		<path fill="#1B2939" d="M71.6,261.9l-2.1-19.2l-3-40.5l-1.5-27c0,0,3.7,20.2,3.6,22.7c-0.3,7.1,5.3,36.7,5.1,45.8    C73.4,255.4,71.6,261.9,71.6,261.9z"/>
	</g>
</g>
<g id="Layer_8" display="none">
	<g display="inline">
		<path opacity="0.45" fill="#F2F2F2" enable-background="new    " d="M295.6,171.9c-3.9-13.5-13.3-12.3-18.2-28.3    c-5.6-18.1,5.3-25.4,1.6-39.4c-3.6-13.7-16-14.9-65.3-39.9c-36.3-18.4-47.7-27-63.2-22.3c-5.7,1.7-15.8,6.4-24.8,11.7    c-13.8,8.1-17,12.9-24.3,13.5c-6.2,0.5-15.3-2.2-27-16.8l0,0c-15.1-18.4-37.7-29-61.5-29C6.9,21.4,2,26.3,2,32.3V162    c2,7.5,2.7,14.2,2.8,19.9c0.1,8-1.1,10.3-0.4,17.1c1,10.3,4.9,17.7,5.7,19.2c3.5,6.5,8.6,11,18.7,19.7c8.3,7.2,15,12.2,16.1,13    c23,17,34.5,25.5,42,27c18.6,3.5,36.4-5,41.5-7.5c7.6-3.7,6.6-4.9,12.4-7c15.5-5.8,23.2,1.5,46.1,2.6c21,1,18.6-7.5,46.5-7.1    c16.1,0.2,25.2,3.5,31.2-2.5c4.9-4.9,2.8-11.2,3.7-21C270.8,201.6,300.2,188.3,295.6,171.9z"/>
		<path fill="#F2F2F2" d="M295.3,172.2c-6.4-14.6-19-11.7-27.3-28.3c-8.6-17,2.2-25-3.4-45.3c-7.1-25.8-32.9-43.4-54.2-49.9    c-7.1-2.2-20.6-6.3-36.5-2.8c-16,3.6-18.8,11.5-41.2,18.5c-12,3.8-21.2,6.5-31.7,3.1c-12-4-18.7-14-21.5-18.8    C76,44.2,68.1,35.1,54.7,30.3c-4.6-1.6-18.4-6.6-31.8-0.8c-2.2,0.9-7.5,3.3-11.9,8.7c-0.2,0.2-3.6,4.5-5.5,10.2    c-5.3,16.5,0.1,52.3,1.1,59.5c1.7,12.2,2.6,30-1.9,52.6c-1,4.3-2.3,12.2-0.3,21.8c2.2,10.5,7.2,17.7,10.1,21.3l0,0    c-0.6,4.7,21.3,23.6,21.2,34.3c-0.1,5-3.5,6.3-3.7,9.9c-0.8,17.6,80.4,38.8,96,23c1.3-1.4,7.4-7.1,16.8-13.1c0,0,3.3-1.7,6.6-3    c26.8-10.3,56.3-1.3,60.5,0.1c8,2.6,12.9,5.3,21.1,4.6c2.9-0.2,13.3-1.2,17.2-8c3.2-5.7-0.8-10.8,2.6-14.3    c3.4-3.6,9.5-1.1,15.1-1.2C282.2,235.6,306.4,197.4,295.3,172.2z"/>
		<path fill="#EFC0A0" d="M138,87.3c-3.2-1-6.6,0.3-8.3,3.1l-3.2,5.2l0,0l-36,18.1c0,0,0.9-7,0.2-10.5L68.5,102    c1.7-0.1,6,21.1,6,21.1s5.8,11.9,20.9,5.4c14.9-6.5,34.3-25.1,34.8-25.6l0,0l7.6-7C140.8,92.2,141.7,89.9,138,87.3z"/>
		<path fill="#FF5748" d="M182.2,118.1c-0.7-2.2-3.1-2.8-5.1-1.4c-3.1,2.2-5.8,4.2-9.8,2.5c-4.9-2.1-7.1-8.1-4.5-12.8    c2.7-4.8,8-4.7,12.7-2.5c2.1,1,4.4-0.4,4.7-2.6l-1.5-12.1l-0.7-5.8c-0.2-1.4-1.4-2.4-2.8-2.2l-4,0.5l-48.4,5.8    c-1.4,0.2-2.4,1.4-2.2,2.8l0.6,5.2l1.6,13c0,0.1,0,0.2-0.1,0.2l1.9,15.8c0,0.1,0.1,0.1,0.1,0.2l2.2,18c0.2,1.4,1.4,2.4,2.8,2.3    l5.3-0.5l13-1.6c2,0.4,3.2,2.6,2.3,4.6c-2.3,4.9-2.3,10.5,3.2,13c4.4,2,9.9,0.2,12-4.2c2-4.2,0-7.3-2.4-10.5    c-1.3-1.7-0.6-4.1,1.2-4.9l18-2.2c1.3-0.2,2.3-1.4,2.1-2.7l-0.7-6l0,0L182.2,118.1z"/>
		<rect x="74.3" y="87.6" transform="matrix(0.5 -0.866 0.866 0.5 -41.9022 118.4029)" fill="#EFC0A0" width="14.6" height="15.8"/>
		<path opacity="0.13" fill="#232323" enable-background="new    " d="M126.6,140.4c10.6-8.7,19.9-18.9,19.9-18.9l7.1-7.5l0,0    c2.8-3.8,3.6-6.2-0.3-8.5l0,0c-3.2-0.8-6.5,0.7-8.1,3.6l-2.9,5.4l-17.5,10.3C124.7,124.8,125.7,134.4,126.6,140.4z"/>
		<path fill="#EFC0A0" d="M87.2,132.8c1.7-0.4,9.9,19.5,9.9,19.5s7.9,10.6,21.5,1.3s29.3-31.9,29.3-31.9l6.1-8.3l0,0    c2.3-4.1,2.8-6.6-1.4-8.4l0,0c-3.3-0.4-6.4,1.5-7.6,4.6l-2.2,5.7L111,140.1c0,0-3.7-33.7-20.7-41.8L87.2,132.8z"/>
		<path fill="#894820" d="M112.7,232.1c0,0,0,5.5,0,7.3c0,1.7-0.2,3.4,6,3.2c4.8-0.1,11.2,0.7,13.3,0.7s2.2-1.4,2.1-3    c-0.1-2.3-11.6-2.7-12.2-3.2c0,0-3.8-0.8-3.5-6.2L112.7,232.1z"/>
		<path fill="#FFD300" d="M254.3,210.3v-16c0-0.1-0.1-0.1-0.1-0.2V181v-5.2c0-1.4-1.2-2.6-2.6-2.6h-18.5c-1.7-0.8-2.6-3-1.5-4.8    c2.8-4.5,3.5-10.2-1.6-13.3c-4.2-2.6-9.8-1.3-12.4,2.7c-2.5,3.9-0.8,7.2,1.1,10.7c1,1.8,0.2,3.9-1.5,4.7h-18.3    c-1.4,0-2.6,1.1-2.6,2.6v5.9v12.2c0.5,2.1,3,3.2,5,2c4.3-2.7,9.7-3.4,12.9,1c3.2,4.3,1.7,10.5-3,13.2c-3.7,2.2-6.7,0.6-10-1.3    c-2.2-1.2-4.4-0.3-4.9,2v17.6c0,1.5,1.2,2.7,2.7,2.7h12l0,0h31.4V231h9.2c1.4,0,2.6-1.1,2.6-2.6v-18.1    C254.3,210.5,254.3,210.4,254.3,210.3z"/>
		<path fill="#00E782" d="M254.3,118.1c0-1.4-1.2-2.6-2.6-2.6h-55.3v19.8c0,2.6-2.9,4.2-5.1,2.8c-4.5-2.8-10.1-3.5-13.3,1.6    c-2.6,4.3-1.3,10,3,12.6c3.8,2.3,7.1,0.6,10.4-1.3c2.2-1.3,5,0.3,5,2.9c0,5.2,0,13,0,16.9c0,1.4,1.1,2.6,2.6,2.6h17.7    c2-0.5,3.1-2.9,2-4.9c-2-3.4-3.6-6.8-1.1-10.7c2.7-4.1,8.3-5.3,12.4-2.8c5.1,3.1,4.4,8.8,1.6,13.3c-1.2,2-0.1,4.5,2,5h12.2h5.8    c1.4,0,2.6-1.2,2.6-2.6L254.3,118.1z"/>
		<path fill="#EFC0A0" d="M78.2,49.5c10.7-3.2,22.8,7.8,25.5,18.8c0.5,1.9,2.1,9.5-2.4,16.7c-3.2,5-9.6,10.3-17.3,9.7    C74.4,94,68.9,84.5,67,78.5C63.9,67.9,67.8,52.6,78.2,49.5z"/>
		<path fill="#894820" d="M31.1,238.3c0,0-5.5,0-7.3,0c-1.7,0-3.4-0.2-3.2,6c0.1,4.8-0.7,11.2-0.7,13.3c0,2,1.4,2.2,3,2.1    c2.3-0.1,2.7-11.6,3.2-12.2c0,0,0.8-3.8,6.2-3.5L31.1,238.3z"/>
		<path fill="#1B2939" d="M46.9,190c-6.8,7.7-3.9,20.1,5.9,23.4c2.1,0.7,4.1,0.9,5.9,0.1c8-3.4,52.4-32.7,53.3-30.1    c0.3,0.9-1.6,7.8-1.7,16.3c-0.2,15.2,1.1,35.5,1.1,35.5h12.9l6.9-59.6c0,0,1.2-13.1-16.7-11.2s-46.9,4.4-50.8,7.5    C61.5,173.7,53.6,182.5,46.9,190z"/>
		<path fill="#24374E" d="M32.8,171.9c0,0-7.4,16.7-3.8,24.6c7.6,16.8,48.8,37.8,46.7,39.5c-0.8,0.7-8.9-0.9-17.7-0.8    c-13.6,0.2-29.6,2-29.6,2v13.2l61.4,0.9c0,0,12.7-3.4,4.7-19.5s-20.4-42.5-24.6-45C65.5,184.2,32.8,171.9,32.8,171.9z"/>
		<path fill="#62D5E6" d="M214.7,197.5c-3.1-5.1-8.7-4.4-13.3-1.6c-2.2,1.4-5.1-0.1-5.1-2.8v-16.7c0-1.4-1.1-2.6-2.6-2.6h-18    c-1.8,0.7-2.8,2.9-1.7,4.8c2,3.4,3.6,6.8,1.1,10.7c-2.7,4.1-8.3,5.3-12.4,2.8c-5.1-3.1-4.4-8.8-1.6-13.3c1.2-1.9,0.2-4.2-1.7-4.9    h-13.1H141c-1.4,0-2.6,1.1-2.6,2.6v18v15.9v18.3c0,1.4,1.1,2.6,2.6,2.6h1.6h4.3h12.2H176h11.4h6.3c1.4,0,2.6-1.1,2.6-2.6v-16.9    c0-2.5,2.7-4.2,5-2.9c3.4,1.9,6.7,3.6,10.4,1.3C215.9,207.5,217.3,201.8,214.7,197.5z"/>
		<path fill="#323857" d="M79.2,83.9c0.7,3-5.4,6.2-6.7,6.5c-0.3,0.1-0.6-0.1-0.8-0.2c-0.7-0.4-7.5-7.6-8.9-9.4    c-3.1-4.4-6.7-17.8-2.5-20.2c1.6-0.9,3,0.5,4.8-0.7c2-1.3,1.7-3.9,2.7-6.6c1.5-4.2,5.7-7.4,9.1-8.3c7-2,10.9,5.1,18.7,2.9    c3.7-1,4.8-3.2,6.7-2.4c3.1,1.2,4.4,8.3,1.9,13.4c-1.7,3.4-5.1,5.8-8.6,6.5c-5.4,1-8.5-2.4-10.3-0.8c-2.8,2.5,3.3,12.2,0.6,14    c-0.8,0.6-2.1,0.2-2.7-0.2c-3-1.7-1.4-7.8-3.6-8.6c-1.3-0.5-3.1,1.2-3.2,1.4C72.3,75.1,77.5,76.7,79.2,83.9z"/>
		<path opacity="0.23" fill="#FFACB5" enable-background="new    " d="M108.3,126c-2.9-9.9-8.4-23.4-17.4-27.7c0,0,0.5,3.3,8.8,13.7    c5.8,7.3,1.3,11.9,6,16.5C107.6,126.6,108.3,126,108.3,126z"/>
		<path opacity="0.53" fill="#1B2939" enable-background="new    " d="M30.2,179.3c-3.3,12.6-2.3,15.5-0.2,19.3    c9.1,15.8,47.8,35.8,45.7,37.5c-0.8,0.7-8.5-0.9-17.3-0.8c-13.6,0.2-30,2-30,2v4.3c0,0,8.9-1.8,17.9-0.4c14.8,2.3,22.2-5.1,34.9-4    c-6.3-0.1-10.8-10.5-17.9-19.2C56,209.1,45,206.6,39,199.8C32.2,191.9,31.5,181.1,30.2,179.3z"/>
		<path fill="#FF6B7C" d="M108.3,126c-2.7-9.4-8.1-22.2-16.2-27.2c-0.8-0.5-1.7-0.8-2.7-0.9c-2.9-0.3-10.5-1.5-14.9-5.9    c-5.5-5.5-13-6.1-17.1-3.2C36.9,103.7,35,158.4,30.3,177c-0.6,2.2,0.4,4.6,2.4,5.7c2.6,1.5,5.1,2.7,7.1,3.6c7.5,3.3,18.2,8,28,3.9    c3.4-1.4,7.6-16.8,8.1-18.4c6.3-21.2,11.5-38.5,11.4-39.1c-0.1-0.7,2,4,4,8.3c0.2,0.4,0.7,0.5,1,0.2L108.3,126z"/>
	</g>
</g>
<g>
	<path fill="#EAF2F9" d="M297,168.6c-1.9-10.4-4.8-9.1-16.4-35.8c-10.5-24.2-7.8-26.4-14.4-37.8c-11.8-20.5-29.5-31-38.7-36.5   c-14.3-8.5-30.3-18.1-51.9-16.2c-20.7,1.8-35.2,13.1-41.2,18.5c-7.6,1.1-18.2,1.4-27.6-4.2c-8.6-5-8.3-10.1-17.9-17.6   c-9.9-7.7-20-9.8-32.5-12.4c-15.4-3.2-23.2-4.6-31.8-0.8C12.7,31,7.3,41.6,5.9,44.5c-8.9,18.1-0.1,33,2.3,59.8   c1.1,12.5,1.2,31-5,54.5c0,5.1,0.5,12.1,2.8,19.9c2.2,7.7,5.6,14.8,10.1,21.3c0,0,0,0,0,0c-0.6,4.7,21.3,23.6,21.2,34.3   c-0.1,5-3.5,6.3-3.7,9.9c-0.8,17.6,80.4,38.8,96,23c1.3-1.4,7.4-7.1,16.8-13.1c0,0,3.3-1.7,6.6-3c26.8-10.3,56.3-1.3,60.5,0.1   c8,2.6,12.9,5.3,21.1,4.6c2.9-0.2,13.3-1.2,17.2-8c3.2-5.7-0.8-10.8,2.6-14.3c3.4-3.6,9.5-1.1,15.1-1.2   C285.8,232,302.2,196.7,297,168.6z"/>
	<g>
		<path fill="#EFC0A0" d="M83.1,250.2c0,0,0,5.5,0,7.3c0,1.7-0.2,3.4,6,3.2c4.8-0.1,11.2,0.7,13.3,0.7c2,0,3.5-2.3,2.1-3    c-3.3-1.6-11.7-2.1-12.3-2.5c0,0-3.6-1.4-3.3-6.8L83.1,250.2z"/>
		<path fill="#2B2B2B" d="M50.9,258l-3.8,6.8c0,0-2,4.4,0.9,5c0,0,5.5,8.2,6.9-6.8c0.1-1.1,0.2-2,0.3-3c0-0.2-0.1-0.4-0.3-0.4    L50.9,258z"/>
		<path fill="#EFC0A0" d="M49.3,256v3.9l-3.1,6.9c0,0-2,4.4,0.9,5c0,0,6.6,2.6,7-4.6c0.4-7.2,2-13.2,2-13.2L49.3,256z"/>
		<path fill="#894820" d="M47,264.8l-0.8,2c0,0-0.9,2-0.7,3.8c0.1,1.1,0.7,3.4,2.2,3.7c0,0,3.3-0.8,5.3-3.8c0.2-0.3,0.6-1.1,0.8-1.9    c0.5-2.3,0.3-1.7,0.5-3.7C52,264.8,49.4,264.5,47,264.8z"/>
		<path fill="#894820" d="M104.4,258.4c-2.5-1.2-3.5-1.2-6.2-1.6c0.3,0.9-2.1,2.4-2.3,3c-3.2,0.2-11.1-2.3-12.8-2.4    c0,0.6,0,1.3,0.3,1.8c0.2,0.3,0.5,0.6,1.1,0.9s1.3,0.4,2.4,0.5c0.6,0,1.4,0.1,2.3,0c4.8-0.1,11.2,0.7,13.3,0.7    C104.4,261.5,109.2,260.5,104.4,258.4z"/>
	</g>
	<path fill="none" stroke="#353535" stroke-width="0.9922" stroke-miterlimit="10" d="M140.4,244.3"/>
	<polygon fill="#848484" points="251,22.3 250,22.3 250,19.4 247,20.1 246.8,19.2 251,18.2  "/>
	<polygon fill="#848484" points="33.3,211.3 32.5,210.7 101,115 101.1,115 163.5,69.1 222.2,68 249.6,19.2 250.5,19.6 222.7,69    163.9,70.1 101.8,115.7  "/>
	<g>
		<path fill="#353535" d="M160.6,258.4c-0.2,0-0.4-0.2-0.4-0.4V131c0-0.2,0.2-0.4,0.4-0.4c0.2,0,0.4,0.2,0.4,0.4v127    C161,258.2,160.8,258.4,160.6,258.4z"/>
		<rect x="106.7" y="45.9" fill="#FFFFFF" width="110.3" height="149.9"/>
		<rect x="106.7" y="45.9" fill="#98C2E2" width="110.3" height="10.7"/>
		<rect x="173.2" y="136.1" fill="#EFEFEF" width="34.4" height="1.3"/>
		<rect x="173.2" y="142" fill="#EFEFEF" width="34.4" height="1.3"/>
		<rect x="173.2" y="147.9" fill="#EFEFEF" width="34.4" height="1.3"/>
		<rect x="173.2" y="153.8" fill="#EFEFEF" width="34.4" height="1.3"/>
		<rect x="173.2" y="159.7" fill="#EFEFEF" width="34.4" height="1.3"/>
		<rect x="173.2" y="165.7" fill="#EFEFEF" width="34.4" height="1.3"/>
		<polygon fill="#98C2E2" points="218.8,195.8 108.6,195.8 218.8,185.1   "/>
		<path fill="#353535" d="M184.6,265.3c-0.1,0-0.2-0.1-0.3-0.2l-24-32.9c-0.1-0.2-0.1-0.4,0.1-0.6c0.2-0.1,0.4-0.1,0.6,0.1l24,32.9    c0.1,0.2,0.1,0.4-0.1,0.6C184.8,265.3,184.7,265.3,184.6,265.3z"/>
		<path fill="#353535" d="M136.5,265.3c-0.1,0-0.2,0-0.2-0.1c-0.2-0.1-0.2-0.4-0.1-0.6l24-32.9c0.1-0.2,0.4-0.2,0.6-0.1    c0.2,0.1,0.2,0.4,0.1,0.6l-24,32.9C136.8,265.3,136.7,265.3,136.5,265.3z"/>
		<rect x="120" y="138.2" fill="#FF5748" width="6.3" height="33.6"/>
		<rect x="131.4" y="129.6" fill="#5FA3E0" width="6.3" height="42.1"/>
		<rect x="142.7" y="134.8" fill="#FFD300" width="6.3" height="36.9"/>
		<rect x="154.1" y="131" fill="#00C18D" width="6.3" height="40.7"/>
		<path fill="#FFD300" d="M163.5,96.9l16.4-9.4l4.5-2.6c-4.2-7.2-11.9-12.1-20.9-12.1c-13.3,0-24.1,10.8-24.1,24.1    s10.8,24.1,24.1,24.1c8.9,0,16.6-4.8,20.8-12l-4.5-2.6L163.5,96.9z"/>
		<path fill="#00C18D" d="M189,84.9l-4.5,2.6l-16.4,9.4l16.4,9.4l4.5,2.6c2.1-3.6,3.3-7.7,3.3-12.1C192.2,92.5,191,88.4,189,84.9z"/>
	</g>
	<polygon fill="#FFD300" points="140.4,59.1 35.7,77.2 32.8,60.3 137.5,42.5  "/>
	<path fill="#EAE6FB" d="M137.5,42.5l25.8,3.6c0.4,0.1,0.5,0.6,0.1,0.8l-23.1,12.2L137.5,42.5z"/>
	<path fill="#38364C" d="M163.5,46.9l-11,5.8l-1.4-8.3l12.3,1.7c0,0,0.3,0.1,0.3,0.3C163.7,46.9,163.5,46.9,163.5,46.9z"/>
	<ellipse fill="#3A2E7E" cx="63.2" cy="63.8" rx="6.4" ry="7.2"/>
	<path fill="#DD5858" d="M35.7,77.2l-8.4,1.6c-2.4,0.4-4.7-1.2-5.1-3.6l-1.4-8.4c-0.4-2.4,1.2-4.7,3.6-5.1l8.4-1.4L35.7,77.2z"/>
	<path fill="#EFC0A0" d="M97.9,72.8h16.7c0,0-4.7-8.5-4.6-8.5c4.1-0.5,8.4-1.4,8.4-1.4l4.7,5.2c3.5,3.9,4.9,9.3,3.3,14.2   c-0.7,2.3-1.9,4.1-4,4.3c-5.8,0.5-25.9,1.3-28.9,2.3C90.6,90,97.9,72.8,97.9,72.8z"/>
	<path fill="#EFC0A0" d="M33.2,90.3l-5.8,12.9c0,0-2.3,5.9-1,6.5c1.4,0.6,8.2,2.8,10.6-2.3c1.3-2.9,6.5-8.9,7.9-11.6   c3.6-7.4,4-14,4-14L33.2,90.3z"/>
	<polygon fill="#EFC0A0" points="87.8,72.1 61.5,72.1 63.2,68.1 65.5,66 75,64.3 83,65.7 85.5,69.6  "/>
	<path fill="#38364C" d="M52.1,141.8c0,0-0.4,5.4-0.1,11.4c1.7,25.8-3.5,84.4-3.3,94.5c0,2-0.1,11.2-0.1,11.2s1.2,0.8,4.1,0.8   c3,0,4.5-0.8,4.5-0.8l18.3-85.2c0.1-0.7,1.1-0.6,1.1,0.1c0.8,18.9,3.3,77.5,5.1,80.2c0,0,9.1,1.8,9.9-1c0.8-2.9,8.1-99.7,5.1-112.8   C93.6,126.8,52.1,141.8,52.1,141.8z"/>
	<path fill="#5FA3E0" d="M83,65.7c-0.1,0.5-0.7,5.5-8.4,5.4c-5.6-0.1-9,0.5-9.1-5C54,69.9,52,70.3,45.6,73.3   C35.9,81.8,32.4,89.9,33,90l13.3,5.3l6-4.6c0,2.7,0.2,6.5,1.7,10.7c0.8,2.4,1.8,4.4,2.8,6.1c0,0,1.9,5,1.7,11.1   C58,129.2,52,137.1,51,146.9c-0.5,4.8,8.3,1.3,26.4,0.6c8.4-0.3,15.3-0.1,19.9,0.1c0.9-2.1,0.1-8.6,0.1-13   c0-11.5-11.1-19.6-4.5-30.1C98,96.2,95,89.8,95,89.8s14.6-1.3,14.6-2.3l0.4-15.2C105.8,73.1,83,65.7,83,65.7z"/>
	<path fill="#E2AF8D" d="M67.2,65.7c0.7,0.5,4.6,3,9.2,1.8c2-0.5,3.4-1.5,4.2-2.3c-0.5-0.2-1.6-0.1-1.7-0.5c-0.1-0.5,1-1.4,1.1-1.5   c-3.4,0.3-6.6-0.5-10-0.3c0.2,0.4,0,1.7-0.1,1.8C69.9,65.4,68.8,65.8,67.2,65.7z"/>
	<path fill="#EFC0A0" d="M67.2,33.1c7.7-2.4,16.5,5.7,18.6,13.7c0.3,1.4,1.5,6.9-1.8,12.1c-2.3,3.7-7,7.5-12.5,7.1   c-7-0.5-11-7.4-12.3-11.8C56.8,46.5,59.7,35.4,67.2,33.1z"/>
	<polygon fill="#EAE6FB" points="39,76.7 35.7,77.2 32.8,60.3 36.1,59.9  "/>
	<path fill="#323857" d="M60.8,73.7c-1.7,1.4-3.1,0-6.6,1.2c-4.6,1.5-5.1,4.7-8.3,6.1c-4.8,2.1-12.6-1-15.9-5.9   c-7.9-11.8,7-34.6,15-34.4c1.1,0,3.1,0.4,4.8-0.7c1.8-1.2,1.8-3.5,2.7-6.6c1.1-3.7,3-6.9,4.4-8.4c5.5-5.7,16.7-5.6,23.6-1.1   c3,1.9,4.8,4.4,5.4,5.4c1.4,2.1,3.8,5.7,2.9,9.6c-1.2,5.3-7.8,8.4-11.8,9c-0.7,0.1-1.8,0.2-3.5,0.6c-2.2,0.5-4.2,0.9-6.2,2.3   c-0.6,0.4-2,1.3-3.1,2.9c-1.5,2.1-1.7,4.3-1.9,6.8C61.6,70.2,62.5,72.3,60.8,73.7z"/>
	<path fill="#EFC0A0" d="M96.5,48.5c-0.2,0.2-0.3,0.4-0.5,0.5c0.1,1,0.5,1.9,1.1,2.6c2.1,2.1,6.1,1.5,9.1-1.3   c0.2-0.2,0.3-0.4,0.5-0.5c-0.1-1-0.5-1.9-1.1-2.6C103.5,45,99.5,45.6,96.5,48.5z"/>
	<path fill="#EFC0A0" d="M34.1,103.5c0,0,5.4,10.6,7.3,13.5c2.1,3.2,9.5,11.9,9.5,11.9s4.3-1.1,5,0.3c3.8,8.1-4.8,7.3-8.2,3.8   c0,0-20.6-16.3-21.6-24.3C25.7,106.1,34.1,103.5,34.1,103.5z"/>
	<circle fill="#FF5748" cx="222.5" cy="68.5" r="2.6"/>
	<circle fill="#FF5748" cx="101.4" cy="116" r="2.6"/>
	<circle fill="#FF5748" cx="32.9" cy="211" r="2.6"/>
	<g>
		<g>
			<path fill="#00C18D" d="M225.4,226c-4.9,1-9.6-2.1-13.6-5c-1.5-1.1-3-2.2-4.5-3.3c0,0,0,0-0.1-0.1c-2.4-1.7-5.6,0.8-4.5,3.5     c0.6,1.4,1.3,2.8,2.3,4c1.1,1.5,2.5,2.9,4.2,3.7c1.1,0.5,2.4,0.7,3.6,0.9c4.3,0.6,9.3,0.7,12.3-2.5"/>
		</g>
		<g>
			<path fill="#00C18D" d="M224.5,239.3c0.6-0.3,1.8-1.8,2.9-3.6c0.7-1.1,2.3-1.4,3.7-1.4c1.3,0,2.7,1,2.7,2.3c0,1.1-1,1.9-1.9,2.4     C229.6,240.2,226.9,240.3,224.5,239.3z"/>
		</g>
		<g>
			<path fill="#00C18D" d="M230,210.5c-0.7-0.4-1.4-2.9-3.6-4.3c-1.4-0.9-2.9-1.7-4.6-1.7c-1.7,0-3.4,1.2-3.4,2.8     c0,1.3,1.2,2.3,2.4,2.9C223.7,211.5,227.2,211.7,230,210.5z"/>
		</g>
		<g>
			<path fill="#00C18D" d="M226.8,221.2c4.1-7,10.5-12.8,18-16.1c1.5-0.7,3.2-1.3,4.9-1.3c1.7,0,3.5,0.7,4.4,2.1     c1.6,2.5,0.1,5.9-2.1,7.9c-4,3.8-9.8,5-15.2,6.1C233.9,220.4,229.8,220.6,226.8,221.2"/>
		</g>
		<path fill="#098C4A" d="M224.9,252.3c-1.6-11.8-0.8-23.4,2.3-34.5c1.3-4.7,3.1-9.3,5.2-13.7l0.8,0.4c-2.1,4.3-3.8,8.9-5.1,13.5    c-3.1,11-3.9,22.5-2.3,34.2L224.9,252.3z"/>
		<g>
			<path fill="#00C18D" d="M232.3,205.2c-0.8-5.7-1.5-13.2,0.2-18.6c0.4-1.2,4.7-8.7,12.6-9.8c1.4-0.2,6.8-0.9,10,2.7     c2.8,3.2,2.2,7.6,2.1,8.1c-0.1,0.5-0.2,2-2,4.6c-1.9,2.8-3.9,5.6-6.5,7.7C244.1,203.5,238.1,204.4,232.3,205.2z"/>
		</g>
		<path fill="#E2E3E9" d="M211.5,247.8l5.2,16.5c0.3,1,1.3,1.7,2.4,1.7h13.4c1.1,0,2-0.7,2.4-1.7l5.2-16.5L211.5,247.8z"/>
	</g>
	<path opacity="0.54" fill="#D1D1D3" d="M231.9,248.2c-3.1,0-7.4,2.3-8.4,4.5c-1.4,3.2,1.4,6.7,0.3,8.3c-2,3.1-2.9,1.8-4.7,4.7   c2.1,0,11.9,0.1,13.6,0c1.5,0,2.1-0.9,2.4-1.8c1.2-4,2.7-8.3,3.8-12.2C238.1,251.4,235,248.2,231.9,248.2z"/>
</g>
</svg>